M48
; DRILL file {KiCad 7.0.8} date Thu Feb 20 14:53:50 2025
; FORMAT={3:3/ absolute / metric / suppress leading zeros}
; #@! TF.CreationDate,2025-02-20T14:53:50+01:00
; #@! TF.GenerationSoftware,Kicad,Pcbnew,7.0.8
; #@! TF.FileFunction,MixedPlating,1,2
FMAT,2
METRIC,TZ
; #@! TA.AperFunction,Plated,PTH,ComponentDrill
T1C0.900
; #@! TA.AperFunction,Plated,PTH,ComponentDrill
T2C1.000
; #@! TA.AperFunction,Plated,PTH,ComponentDrill
T3C1.200
%
G90
G05
T1
X158242Y-109474
X158242Y-114554
X158242Y-119634
X160782Y-109474
X160782Y-114554
X160782Y-119634
T2
X123547Y-78279
X123547Y-80819
X123547Y-83359
X123547Y-85899
X123547Y-88439
X123547Y-90979
X123547Y-93519
X123547Y-96059
X123547Y-98599
X123547Y-101139
X123547Y-103679
X123547Y-106219
X123547Y-108759
X123547Y-111299
X123547Y-113839
X123547Y-116379
X123547Y-118919
X123547Y-121459
X123547Y-123999
X123547Y-126539
X126087Y-78279
X126087Y-80819
X126087Y-83359
X126087Y-85899
X126087Y-88439
X126087Y-90979
X126087Y-93519
X126087Y-96059
X126087Y-98599
X126087Y-101139
X126087Y-103679
X126087Y-106219
X126087Y-108759
X126087Y-111299
X126087Y-113839
X126087Y-116379
X126087Y-118919
X126087Y-121459
X126087Y-123999
X126087Y-126539
X132842Y-78279
X132842Y-80819
X132842Y-83359
X132842Y-85899
X132842Y-88439
X132842Y-90979
X132842Y-93519
X132842Y-96059
X132842Y-98599
X132842Y-101139
X132842Y-103679
X132842Y-106219
X132842Y-108759
X132842Y-111299
X132842Y-113839
X132842Y-116379
X132842Y-118919
X132842Y-121459
X132842Y-123999
X132842Y-126539
X137202Y-129654
X139455Y-73974
X139982Y-129684
X142235Y-74004
X142812Y-129684
X145064Y-74004
X145712Y-129684
X147965Y-74004
X148522Y-129704
X150775Y-74024
X152482Y-129634
X155262Y-129664
X158092Y-129664
X160992Y-129664
X163802Y-129684
X168402Y-78279
X168402Y-80819
X168402Y-83359
X168402Y-85899
X168402Y-88439
X168402Y-90979
X168402Y-93519
X168402Y-96059
X168402Y-98599
X168402Y-101139
X168402Y-103679
X168402Y-106219
X168402Y-108759
X168402Y-111299
X168402Y-113839
X168402Y-116379
X168402Y-118919
X168402Y-121459
X168402Y-123999
X168402Y-126539
T3
X140462Y-109474
X140462Y-114554
X140462Y-119634
X145542Y-109474
X145542Y-114554
X145542Y-119634
T0
M30
