%TF.GenerationSoftware,KiCad,Pcbnew,7.0.8*%
%TF.CreationDate,2025-02-20T14:53:18+01:00*%
%TF.ProjectId,Raspi,52617370-692e-46b6-9963-61645f706362,rev?*%
%TF.SameCoordinates,Original*%
%TF.FileFunction,Legend,Top*%
%TF.FilePolarity,Positive*%
%FSLAX46Y46*%
G04 Gerber Fmt 4.6, Leading zero omitted, Abs format (unit mm)*
G04 Created by KiCad (PCBNEW 7.0.8) date 2025-02-20 14:53:18*
%MOMM*%
%LPD*%
G01*
G04 APERTURE LIST*
%ADD10C,0.150000*%
%ADD11C,0.120000*%
G04 APERTURE END LIST*
D10*
X118554493Y-133853819D02*
X118554493Y-134568104D01*
X118554493Y-134568104D02*
X118506874Y-134710961D01*
X118506874Y-134710961D02*
X118411636Y-134806200D01*
X118411636Y-134806200D02*
X118268779Y-134853819D01*
X118268779Y-134853819D02*
X118173541Y-134853819D01*
X119506874Y-134853819D02*
X119030684Y-134853819D01*
X119030684Y-134853819D02*
X119030684Y-133853819D01*
X120411636Y-134758580D02*
X120364017Y-134806200D01*
X120364017Y-134806200D02*
X120221160Y-134853819D01*
X120221160Y-134853819D02*
X120125922Y-134853819D01*
X120125922Y-134853819D02*
X119983065Y-134806200D01*
X119983065Y-134806200D02*
X119887827Y-134710961D01*
X119887827Y-134710961D02*
X119840208Y-134615723D01*
X119840208Y-134615723D02*
X119792589Y-134425247D01*
X119792589Y-134425247D02*
X119792589Y-134282390D01*
X119792589Y-134282390D02*
X119840208Y-134091914D01*
X119840208Y-134091914D02*
X119887827Y-133996676D01*
X119887827Y-133996676D02*
X119983065Y-133901438D01*
X119983065Y-133901438D02*
X120125922Y-133853819D01*
X120125922Y-133853819D02*
X120221160Y-133853819D01*
X120221160Y-133853819D02*
X120364017Y-133901438D01*
X120364017Y-133901438D02*
X120411636Y-133949057D01*
X121125922Y-133853819D02*
X121125922Y-134568104D01*
X121125922Y-134568104D02*
X121078303Y-134710961D01*
X121078303Y-134710961D02*
X120983065Y-134806200D01*
X120983065Y-134806200D02*
X120840208Y-134853819D01*
X120840208Y-134853819D02*
X120744970Y-134853819D01*
X122078303Y-134853819D02*
X121602113Y-134853819D01*
X121602113Y-134853819D02*
X121602113Y-133853819D01*
X122983065Y-134758580D02*
X122935446Y-134806200D01*
X122935446Y-134806200D02*
X122792589Y-134853819D01*
X122792589Y-134853819D02*
X122697351Y-134853819D01*
X122697351Y-134853819D02*
X122554494Y-134806200D01*
X122554494Y-134806200D02*
X122459256Y-134710961D01*
X122459256Y-134710961D02*
X122411637Y-134615723D01*
X122411637Y-134615723D02*
X122364018Y-134425247D01*
X122364018Y-134425247D02*
X122364018Y-134282390D01*
X122364018Y-134282390D02*
X122411637Y-134091914D01*
X122411637Y-134091914D02*
X122459256Y-133996676D01*
X122459256Y-133996676D02*
X122554494Y-133901438D01*
X122554494Y-133901438D02*
X122697351Y-133853819D01*
X122697351Y-133853819D02*
X122792589Y-133853819D01*
X122792589Y-133853819D02*
X122935446Y-133901438D01*
X122935446Y-133901438D02*
X122983065Y-133949057D01*
X123697351Y-133853819D02*
X123697351Y-134568104D01*
X123697351Y-134568104D02*
X123649732Y-134710961D01*
X123649732Y-134710961D02*
X123554494Y-134806200D01*
X123554494Y-134806200D02*
X123411637Y-134853819D01*
X123411637Y-134853819D02*
X123316399Y-134853819D01*
X124649732Y-134853819D02*
X124173542Y-134853819D01*
X124173542Y-134853819D02*
X124173542Y-133853819D01*
X125554494Y-134758580D02*
X125506875Y-134806200D01*
X125506875Y-134806200D02*
X125364018Y-134853819D01*
X125364018Y-134853819D02*
X125268780Y-134853819D01*
X125268780Y-134853819D02*
X125125923Y-134806200D01*
X125125923Y-134806200D02*
X125030685Y-134710961D01*
X125030685Y-134710961D02*
X124983066Y-134615723D01*
X124983066Y-134615723D02*
X124935447Y-134425247D01*
X124935447Y-134425247D02*
X124935447Y-134282390D01*
X124935447Y-134282390D02*
X124983066Y-134091914D01*
X124983066Y-134091914D02*
X125030685Y-133996676D01*
X125030685Y-133996676D02*
X125125923Y-133901438D01*
X125125923Y-133901438D02*
X125268780Y-133853819D01*
X125268780Y-133853819D02*
X125364018Y-133853819D01*
X125364018Y-133853819D02*
X125506875Y-133901438D01*
X125506875Y-133901438D02*
X125554494Y-133949057D01*
X126268780Y-133853819D02*
X126268780Y-134568104D01*
X126268780Y-134568104D02*
X126221161Y-134710961D01*
X126221161Y-134710961D02*
X126125923Y-134806200D01*
X126125923Y-134806200D02*
X125983066Y-134853819D01*
X125983066Y-134853819D02*
X125887828Y-134853819D01*
X127221161Y-134853819D02*
X126744971Y-134853819D01*
X126744971Y-134853819D02*
X126744971Y-133853819D01*
X128125923Y-134758580D02*
X128078304Y-134806200D01*
X128078304Y-134806200D02*
X127935447Y-134853819D01*
X127935447Y-134853819D02*
X127840209Y-134853819D01*
X127840209Y-134853819D02*
X127697352Y-134806200D01*
X127697352Y-134806200D02*
X127602114Y-134710961D01*
X127602114Y-134710961D02*
X127554495Y-134615723D01*
X127554495Y-134615723D02*
X127506876Y-134425247D01*
X127506876Y-134425247D02*
X127506876Y-134282390D01*
X127506876Y-134282390D02*
X127554495Y-134091914D01*
X127554495Y-134091914D02*
X127602114Y-133996676D01*
X127602114Y-133996676D02*
X127697352Y-133901438D01*
X127697352Y-133901438D02*
X127840209Y-133853819D01*
X127840209Y-133853819D02*
X127935447Y-133853819D01*
X127935447Y-133853819D02*
X128078304Y-133901438D01*
X128078304Y-133901438D02*
X128125923Y-133949057D01*
X132508666Y-74963819D02*
X132508666Y-75678104D01*
X132508666Y-75678104D02*
X132461047Y-75820961D01*
X132461047Y-75820961D02*
X132365809Y-75916200D01*
X132365809Y-75916200D02*
X132222952Y-75963819D01*
X132222952Y-75963819D02*
X132127714Y-75963819D01*
X133127714Y-75392390D02*
X133032476Y-75344771D01*
X133032476Y-75344771D02*
X132984857Y-75297152D01*
X132984857Y-75297152D02*
X132937238Y-75201914D01*
X132937238Y-75201914D02*
X132937238Y-75154295D01*
X132937238Y-75154295D02*
X132984857Y-75059057D01*
X132984857Y-75059057D02*
X133032476Y-75011438D01*
X133032476Y-75011438D02*
X133127714Y-74963819D01*
X133127714Y-74963819D02*
X133318190Y-74963819D01*
X133318190Y-74963819D02*
X133413428Y-75011438D01*
X133413428Y-75011438D02*
X133461047Y-75059057D01*
X133461047Y-75059057D02*
X133508666Y-75154295D01*
X133508666Y-75154295D02*
X133508666Y-75201914D01*
X133508666Y-75201914D02*
X133461047Y-75297152D01*
X133461047Y-75297152D02*
X133413428Y-75344771D01*
X133413428Y-75344771D02*
X133318190Y-75392390D01*
X133318190Y-75392390D02*
X133127714Y-75392390D01*
X133127714Y-75392390D02*
X133032476Y-75440009D01*
X133032476Y-75440009D02*
X132984857Y-75487628D01*
X132984857Y-75487628D02*
X132937238Y-75582866D01*
X132937238Y-75582866D02*
X132937238Y-75773342D01*
X132937238Y-75773342D02*
X132984857Y-75868580D01*
X132984857Y-75868580D02*
X133032476Y-75916200D01*
X133032476Y-75916200D02*
X133127714Y-75963819D01*
X133127714Y-75963819D02*
X133318190Y-75963819D01*
X133318190Y-75963819D02*
X133413428Y-75916200D01*
X133413428Y-75916200D02*
X133461047Y-75868580D01*
X133461047Y-75868580D02*
X133508666Y-75773342D01*
X133508666Y-75773342D02*
X133508666Y-75582866D01*
X133508666Y-75582866D02*
X133461047Y-75487628D01*
X133461047Y-75487628D02*
X133413428Y-75440009D01*
X133413428Y-75440009D02*
X133318190Y-75392390D01*
X168068666Y-74963819D02*
X168068666Y-75678104D01*
X168068666Y-75678104D02*
X168021047Y-75820961D01*
X168021047Y-75820961D02*
X167925809Y-75916200D01*
X167925809Y-75916200D02*
X167782952Y-75963819D01*
X167782952Y-75963819D02*
X167687714Y-75963819D01*
X168449619Y-74963819D02*
X169116285Y-74963819D01*
X169116285Y-74963819D02*
X168687714Y-75963819D01*
X124483666Y-74963819D02*
X124483666Y-75678104D01*
X124483666Y-75678104D02*
X124436047Y-75820961D01*
X124436047Y-75820961D02*
X124340809Y-75916200D01*
X124340809Y-75916200D02*
X124197952Y-75963819D01*
X124197952Y-75963819D02*
X124102714Y-75963819D01*
X124912238Y-75059057D02*
X124959857Y-75011438D01*
X124959857Y-75011438D02*
X125055095Y-74963819D01*
X125055095Y-74963819D02*
X125293190Y-74963819D01*
X125293190Y-74963819D02*
X125388428Y-75011438D01*
X125388428Y-75011438D02*
X125436047Y-75059057D01*
X125436047Y-75059057D02*
X125483666Y-75154295D01*
X125483666Y-75154295D02*
X125483666Y-75249533D01*
X125483666Y-75249533D02*
X125436047Y-75392390D01*
X125436047Y-75392390D02*
X124864619Y-75963819D01*
X124864619Y-75963819D02*
X125483666Y-75963819D01*
D11*
%TO.C,J8*%
X131512000Y-79549000D02*
X131512000Y-127869000D01*
X134172000Y-76949000D02*
X134172000Y-78279000D01*
X131512000Y-79549000D02*
X134172000Y-79549000D01*
X132842000Y-76949000D02*
X134172000Y-76949000D01*
X131512000Y-127869000D02*
X134172000Y-127869000D01*
X134172000Y-79549000D02*
X134172000Y-127869000D01*
%TO.C,J7*%
X167072000Y-79549000D02*
X167072000Y-127869000D01*
X169732000Y-76949000D02*
X169732000Y-78279000D01*
X167072000Y-79549000D02*
X169732000Y-79549000D01*
X168402000Y-76949000D02*
X169732000Y-76949000D01*
X167072000Y-127869000D02*
X169732000Y-127869000D01*
X169732000Y-79549000D02*
X169732000Y-127869000D01*
%TO.C,J2*%
X127417000Y-76949000D02*
X127417000Y-78279000D01*
X126087000Y-76949000D02*
X127417000Y-76949000D01*
X124817000Y-79549000D02*
X127417000Y-79549000D01*
X124817000Y-76949000D02*
X124817000Y-79549000D01*
X122217000Y-127869000D02*
X127417000Y-127869000D01*
X122217000Y-76949000D02*
X124817000Y-76949000D01*
X127417000Y-79549000D02*
X127417000Y-127869000D01*
X122217000Y-76949000D02*
X122217000Y-127869000D01*
%TD*%
M02*
