%TF.GenerationSoftware,KiCad,Pcbnew,7.0.8*%
%TF.CreationDate,2025-03-02T05:57:02+01:00*%
%TF.ProjectId,Raspi-Connector,52617370-692d-4436-9f6e-6e6563746f72,rev?*%
%TF.SameCoordinates,Original*%
%TF.FileFunction,Legend,Bot*%
%TF.FilePolarity,Positive*%
%FSLAX46Y46*%
G04 Gerber Fmt 4.6, Leading zero omitted, Abs format (unit mm)*
G04 Created by KiCad (PCBNEW 7.0.8) date 2025-03-02 05:57:02*
%MOMM*%
%LPD*%
G01*
G04 APERTURE LIST*
%ADD10C,0.125000*%
%ADD11C,0.150000*%
%ADD12C,0.050000*%
%ADD13C,0.120000*%
%ADD14C,0.010000*%
G04 APERTURE END LIST*
D10*
X129145806Y-85188880D02*
X128574378Y-85188880D01*
X128860092Y-85188880D02*
X128860092Y-86188880D01*
X128860092Y-86188880D02*
X128764854Y-86046023D01*
X128764854Y-86046023D02*
X128669616Y-85950785D01*
X128669616Y-85950785D02*
X128574378Y-85903166D01*
X129479140Y-86188880D02*
X130098187Y-86188880D01*
X130098187Y-86188880D02*
X129764854Y-85807928D01*
X129764854Y-85807928D02*
X129907711Y-85807928D01*
X129907711Y-85807928D02*
X130002949Y-85760309D01*
X130002949Y-85760309D02*
X130050568Y-85712690D01*
X130050568Y-85712690D02*
X130098187Y-85617452D01*
X130098187Y-85617452D02*
X130098187Y-85379357D01*
X130098187Y-85379357D02*
X130050568Y-85284119D01*
X130050568Y-85284119D02*
X130002949Y-85236500D01*
X130002949Y-85236500D02*
X129907711Y-85188880D01*
X129907711Y-85188880D02*
X129621997Y-85188880D01*
X129621997Y-85188880D02*
X129526759Y-85236500D01*
X129526759Y-85236500D02*
X129479140Y-85284119D01*
X171913140Y-121754261D02*
X171817902Y-121801880D01*
X171817902Y-121801880D02*
X171675045Y-121801880D01*
X171675045Y-121801880D02*
X171532188Y-121754261D01*
X171532188Y-121754261D02*
X171436950Y-121659023D01*
X171436950Y-121659023D02*
X171389331Y-121563785D01*
X171389331Y-121563785D02*
X171341712Y-121373309D01*
X171341712Y-121373309D02*
X171341712Y-121230452D01*
X171341712Y-121230452D02*
X171389331Y-121039976D01*
X171389331Y-121039976D02*
X171436950Y-120944738D01*
X171436950Y-120944738D02*
X171532188Y-120849500D01*
X171532188Y-120849500D02*
X171675045Y-120801880D01*
X171675045Y-120801880D02*
X171770283Y-120801880D01*
X171770283Y-120801880D02*
X171913140Y-120849500D01*
X171913140Y-120849500D02*
X171960759Y-120897119D01*
X171960759Y-120897119D02*
X171960759Y-121230452D01*
X171960759Y-121230452D02*
X171770283Y-121230452D01*
X172389331Y-120801880D02*
X172389331Y-121801880D01*
X172389331Y-121801880D02*
X172960759Y-120801880D01*
X172960759Y-120801880D02*
X172960759Y-121801880D01*
X173436950Y-120801880D02*
X173436950Y-121801880D01*
X173436950Y-121801880D02*
X173675045Y-121801880D01*
X173675045Y-121801880D02*
X173817902Y-121754261D01*
X173817902Y-121754261D02*
X173913140Y-121659023D01*
X173913140Y-121659023D02*
X173960759Y-121563785D01*
X173960759Y-121563785D02*
X174008378Y-121373309D01*
X174008378Y-121373309D02*
X174008378Y-121230452D01*
X174008378Y-121230452D02*
X173960759Y-121039976D01*
X173960759Y-121039976D02*
X173913140Y-120944738D01*
X173913140Y-120944738D02*
X173817902Y-120849500D01*
X173817902Y-120849500D02*
X173675045Y-120801880D01*
X173675045Y-120801880D02*
X173436950Y-120801880D01*
X129145807Y-100438880D02*
X129336283Y-100438880D01*
X129336283Y-100438880D02*
X129431521Y-100486500D01*
X129431521Y-100486500D02*
X129479140Y-100534119D01*
X129479140Y-100534119D02*
X129574378Y-100676976D01*
X129574378Y-100676976D02*
X129621997Y-100867452D01*
X129621997Y-100867452D02*
X129621997Y-101248404D01*
X129621997Y-101248404D02*
X129574378Y-101343642D01*
X129574378Y-101343642D02*
X129526759Y-101391261D01*
X129526759Y-101391261D02*
X129431521Y-101438880D01*
X129431521Y-101438880D02*
X129241045Y-101438880D01*
X129241045Y-101438880D02*
X129145807Y-101391261D01*
X129145807Y-101391261D02*
X129098188Y-101343642D01*
X129098188Y-101343642D02*
X129050569Y-101248404D01*
X129050569Y-101248404D02*
X129050569Y-101010309D01*
X129050569Y-101010309D02*
X129098188Y-100915071D01*
X129098188Y-100915071D02*
X129145807Y-100867452D01*
X129145807Y-100867452D02*
X129241045Y-100819833D01*
X129241045Y-100819833D02*
X129431521Y-100819833D01*
X129431521Y-100819833D02*
X129526759Y-100867452D01*
X129526759Y-100867452D02*
X129574378Y-100915071D01*
X129574378Y-100915071D02*
X129621997Y-101010309D01*
X171913140Y-113041880D02*
X171341712Y-113041880D01*
X171627426Y-113041880D02*
X171627426Y-114041880D01*
X171627426Y-114041880D02*
X171532188Y-113899023D01*
X171532188Y-113899023D02*
X171436950Y-113803785D01*
X171436950Y-113803785D02*
X171341712Y-113756166D01*
X172484569Y-113613309D02*
X172389331Y-113660928D01*
X172389331Y-113660928D02*
X172341712Y-113708547D01*
X172341712Y-113708547D02*
X172294093Y-113803785D01*
X172294093Y-113803785D02*
X172294093Y-113851404D01*
X172294093Y-113851404D02*
X172341712Y-113946642D01*
X172341712Y-113946642D02*
X172389331Y-113994261D01*
X172389331Y-113994261D02*
X172484569Y-114041880D01*
X172484569Y-114041880D02*
X172675045Y-114041880D01*
X172675045Y-114041880D02*
X172770283Y-113994261D01*
X172770283Y-113994261D02*
X172817902Y-113946642D01*
X172817902Y-113946642D02*
X172865521Y-113851404D01*
X172865521Y-113851404D02*
X172865521Y-113803785D01*
X172865521Y-113803785D02*
X172817902Y-113708547D01*
X172817902Y-113708547D02*
X172770283Y-113660928D01*
X172770283Y-113660928D02*
X172675045Y-113613309D01*
X172675045Y-113613309D02*
X172484569Y-113613309D01*
X172484569Y-113613309D02*
X172389331Y-113565690D01*
X172389331Y-113565690D02*
X172341712Y-113518071D01*
X172341712Y-113518071D02*
X172294093Y-113422833D01*
X172294093Y-113422833D02*
X172294093Y-113232357D01*
X172294093Y-113232357D02*
X172341712Y-113137119D01*
X172341712Y-113137119D02*
X172389331Y-113089500D01*
X172389331Y-113089500D02*
X172484569Y-113041880D01*
X172484569Y-113041880D02*
X172675045Y-113041880D01*
X172675045Y-113041880D02*
X172770283Y-113089500D01*
X172770283Y-113089500D02*
X172817902Y-113137119D01*
X172817902Y-113137119D02*
X172865521Y-113232357D01*
X172865521Y-113232357D02*
X172865521Y-113422833D01*
X172865521Y-113422833D02*
X172817902Y-113518071D01*
X172817902Y-113518071D02*
X172770283Y-113565690D01*
X172770283Y-113565690D02*
X172675045Y-113613309D01*
X171913140Y-115831880D02*
X171341712Y-115831880D01*
X171627426Y-115831880D02*
X171627426Y-116831880D01*
X171627426Y-116831880D02*
X171532188Y-116689023D01*
X171532188Y-116689023D02*
X171436950Y-116593785D01*
X171436950Y-116593785D02*
X171341712Y-116546166D01*
X172817902Y-116831880D02*
X172341712Y-116831880D01*
X172341712Y-116831880D02*
X172294093Y-116355690D01*
X172294093Y-116355690D02*
X172341712Y-116403309D01*
X172341712Y-116403309D02*
X172436950Y-116450928D01*
X172436950Y-116450928D02*
X172675045Y-116450928D01*
X172675045Y-116450928D02*
X172770283Y-116403309D01*
X172770283Y-116403309D02*
X172817902Y-116355690D01*
X172817902Y-116355690D02*
X172865521Y-116260452D01*
X172865521Y-116260452D02*
X172865521Y-116022357D01*
X172865521Y-116022357D02*
X172817902Y-115927119D01*
X172817902Y-115927119D02*
X172770283Y-115879500D01*
X172770283Y-115879500D02*
X172675045Y-115831880D01*
X172675045Y-115831880D02*
X172436950Y-115831880D01*
X172436950Y-115831880D02*
X172341712Y-115879500D01*
X172341712Y-115879500D02*
X172294093Y-115927119D01*
X127860093Y-106538880D02*
X128479140Y-106538880D01*
X128479140Y-106538880D02*
X128145807Y-106157928D01*
X128145807Y-106157928D02*
X128288664Y-106157928D01*
X128288664Y-106157928D02*
X128383902Y-106110309D01*
X128383902Y-106110309D02*
X128431521Y-106062690D01*
X128431521Y-106062690D02*
X128479140Y-105967452D01*
X128479140Y-105967452D02*
X128479140Y-105729357D01*
X128479140Y-105729357D02*
X128431521Y-105634119D01*
X128431521Y-105634119D02*
X128383902Y-105586500D01*
X128383902Y-105586500D02*
X128288664Y-105538880D01*
X128288664Y-105538880D02*
X128002950Y-105538880D01*
X128002950Y-105538880D02*
X127907712Y-105586500D01*
X127907712Y-105586500D02*
X127860093Y-105634119D01*
X128907712Y-105634119D02*
X128955331Y-105586500D01*
X128955331Y-105586500D02*
X128907712Y-105538880D01*
X128907712Y-105538880D02*
X128860093Y-105586500D01*
X128860093Y-105586500D02*
X128907712Y-105634119D01*
X128907712Y-105634119D02*
X128907712Y-105538880D01*
X129288664Y-106538880D02*
X129907711Y-106538880D01*
X129907711Y-106538880D02*
X129574378Y-106157928D01*
X129574378Y-106157928D02*
X129717235Y-106157928D01*
X129717235Y-106157928D02*
X129812473Y-106110309D01*
X129812473Y-106110309D02*
X129860092Y-106062690D01*
X129860092Y-106062690D02*
X129907711Y-105967452D01*
X129907711Y-105967452D02*
X129907711Y-105729357D01*
X129907711Y-105729357D02*
X129860092Y-105634119D01*
X129860092Y-105634119D02*
X129812473Y-105586500D01*
X129812473Y-105586500D02*
X129717235Y-105538880D01*
X129717235Y-105538880D02*
X129431521Y-105538880D01*
X129431521Y-105538880D02*
X129336283Y-105586500D01*
X129336283Y-105586500D02*
X129288664Y-105634119D01*
X130193426Y-106538880D02*
X130526759Y-105538880D01*
X130526759Y-105538880D02*
X130860092Y-106538880D01*
X129145806Y-82638880D02*
X128574378Y-82638880D01*
X128860092Y-82638880D02*
X128860092Y-83638880D01*
X128860092Y-83638880D02*
X128764854Y-83496023D01*
X128764854Y-83496023D02*
X128669616Y-83400785D01*
X128669616Y-83400785D02*
X128574378Y-83353166D01*
X129621997Y-82638880D02*
X129812473Y-82638880D01*
X129812473Y-82638880D02*
X129907711Y-82686500D01*
X129907711Y-82686500D02*
X129955330Y-82734119D01*
X129955330Y-82734119D02*
X130050568Y-82876976D01*
X130050568Y-82876976D02*
X130098187Y-83067452D01*
X130098187Y-83067452D02*
X130098187Y-83448404D01*
X130098187Y-83448404D02*
X130050568Y-83543642D01*
X130050568Y-83543642D02*
X130002949Y-83591261D01*
X130002949Y-83591261D02*
X129907711Y-83638880D01*
X129907711Y-83638880D02*
X129717235Y-83638880D01*
X129717235Y-83638880D02*
X129621997Y-83591261D01*
X129621997Y-83591261D02*
X129574378Y-83543642D01*
X129574378Y-83543642D02*
X129526759Y-83448404D01*
X129526759Y-83448404D02*
X129526759Y-83210309D01*
X129526759Y-83210309D02*
X129574378Y-83115071D01*
X129574378Y-83115071D02*
X129621997Y-83067452D01*
X129621997Y-83067452D02*
X129717235Y-83019833D01*
X129717235Y-83019833D02*
X129907711Y-83019833D01*
X129907711Y-83019833D02*
X130002949Y-83067452D01*
X130002949Y-83067452D02*
X130050568Y-83115071D01*
X130050568Y-83115071D02*
X130098187Y-83210309D01*
X129526759Y-118835547D02*
X129526759Y-118168880D01*
X129288664Y-119216500D02*
X129050569Y-118502214D01*
X129050569Y-118502214D02*
X129669616Y-118502214D01*
X171913140Y-87851880D02*
X171341712Y-87851880D01*
X171627426Y-87851880D02*
X171627426Y-88851880D01*
X171627426Y-88851880D02*
X171532188Y-88709023D01*
X171532188Y-88709023D02*
X171436950Y-88613785D01*
X171436950Y-88613785D02*
X171341712Y-88566166D01*
X172294093Y-88756642D02*
X172341712Y-88804261D01*
X172341712Y-88804261D02*
X172436950Y-88851880D01*
X172436950Y-88851880D02*
X172675045Y-88851880D01*
X172675045Y-88851880D02*
X172770283Y-88804261D01*
X172770283Y-88804261D02*
X172817902Y-88756642D01*
X172817902Y-88756642D02*
X172865521Y-88661404D01*
X172865521Y-88661404D02*
X172865521Y-88566166D01*
X172865521Y-88566166D02*
X172817902Y-88423309D01*
X172817902Y-88423309D02*
X172246474Y-87851880D01*
X172246474Y-87851880D02*
X172865521Y-87851880D01*
X144766140Y-78105261D02*
X144670902Y-78152880D01*
X144670902Y-78152880D02*
X144528045Y-78152880D01*
X144528045Y-78152880D02*
X144385188Y-78105261D01*
X144385188Y-78105261D02*
X144289950Y-78010023D01*
X144289950Y-78010023D02*
X144242331Y-77914785D01*
X144242331Y-77914785D02*
X144194712Y-77724309D01*
X144194712Y-77724309D02*
X144194712Y-77581452D01*
X144194712Y-77581452D02*
X144242331Y-77390976D01*
X144242331Y-77390976D02*
X144289950Y-77295738D01*
X144289950Y-77295738D02*
X144385188Y-77200500D01*
X144385188Y-77200500D02*
X144528045Y-77152880D01*
X144528045Y-77152880D02*
X144623283Y-77152880D01*
X144623283Y-77152880D02*
X144766140Y-77200500D01*
X144766140Y-77200500D02*
X144813759Y-77248119D01*
X144813759Y-77248119D02*
X144813759Y-77581452D01*
X144813759Y-77581452D02*
X144623283Y-77581452D01*
X145242331Y-77152880D02*
X145242331Y-78152880D01*
X145242331Y-78152880D02*
X145813759Y-77152880D01*
X145813759Y-77152880D02*
X145813759Y-78152880D01*
X146289950Y-77152880D02*
X146289950Y-78152880D01*
X146289950Y-78152880D02*
X146528045Y-78152880D01*
X146528045Y-78152880D02*
X146670902Y-78105261D01*
X146670902Y-78105261D02*
X146766140Y-78010023D01*
X146766140Y-78010023D02*
X146813759Y-77914785D01*
X146813759Y-77914785D02*
X146861378Y-77724309D01*
X146861378Y-77724309D02*
X146861378Y-77581452D01*
X146861378Y-77581452D02*
X146813759Y-77390976D01*
X146813759Y-77390976D02*
X146766140Y-77295738D01*
X146766140Y-77295738D02*
X146670902Y-77200500D01*
X146670902Y-77200500D02*
X146528045Y-77152880D01*
X146528045Y-77152880D02*
X146289950Y-77152880D01*
X127860093Y-127248880D02*
X128479140Y-127248880D01*
X128479140Y-127248880D02*
X128145807Y-126867928D01*
X128145807Y-126867928D02*
X128288664Y-126867928D01*
X128288664Y-126867928D02*
X128383902Y-126820309D01*
X128383902Y-126820309D02*
X128431521Y-126772690D01*
X128431521Y-126772690D02*
X128479140Y-126677452D01*
X128479140Y-126677452D02*
X128479140Y-126439357D01*
X128479140Y-126439357D02*
X128431521Y-126344119D01*
X128431521Y-126344119D02*
X128383902Y-126296500D01*
X128383902Y-126296500D02*
X128288664Y-126248880D01*
X128288664Y-126248880D02*
X128002950Y-126248880D01*
X128002950Y-126248880D02*
X127907712Y-126296500D01*
X127907712Y-126296500D02*
X127860093Y-126344119D01*
X128907712Y-126344119D02*
X128955331Y-126296500D01*
X128955331Y-126296500D02*
X128907712Y-126248880D01*
X128907712Y-126248880D02*
X128860093Y-126296500D01*
X128860093Y-126296500D02*
X128907712Y-126344119D01*
X128907712Y-126344119D02*
X128907712Y-126248880D01*
X129288664Y-127248880D02*
X129907711Y-127248880D01*
X129907711Y-127248880D02*
X129574378Y-126867928D01*
X129574378Y-126867928D02*
X129717235Y-126867928D01*
X129717235Y-126867928D02*
X129812473Y-126820309D01*
X129812473Y-126820309D02*
X129860092Y-126772690D01*
X129860092Y-126772690D02*
X129907711Y-126677452D01*
X129907711Y-126677452D02*
X129907711Y-126439357D01*
X129907711Y-126439357D02*
X129860092Y-126344119D01*
X129860092Y-126344119D02*
X129812473Y-126296500D01*
X129812473Y-126296500D02*
X129717235Y-126248880D01*
X129717235Y-126248880D02*
X129431521Y-126248880D01*
X129431521Y-126248880D02*
X129336283Y-126296500D01*
X129336283Y-126296500D02*
X129288664Y-126344119D01*
X130193426Y-127248880D02*
X130526759Y-126248880D01*
X130526759Y-126248880D02*
X130860092Y-127248880D01*
X129574378Y-91258880D02*
X129098188Y-91258880D01*
X129098188Y-91258880D02*
X129050569Y-90782690D01*
X129050569Y-90782690D02*
X129098188Y-90830309D01*
X129098188Y-90830309D02*
X129193426Y-90877928D01*
X129193426Y-90877928D02*
X129431521Y-90877928D01*
X129431521Y-90877928D02*
X129526759Y-90830309D01*
X129526759Y-90830309D02*
X129574378Y-90782690D01*
X129574378Y-90782690D02*
X129621997Y-90687452D01*
X129621997Y-90687452D02*
X129621997Y-90449357D01*
X129621997Y-90449357D02*
X129574378Y-90354119D01*
X129574378Y-90354119D02*
X129526759Y-90306500D01*
X129526759Y-90306500D02*
X129431521Y-90258880D01*
X129431521Y-90258880D02*
X129193426Y-90258880D01*
X129193426Y-90258880D02*
X129098188Y-90306500D01*
X129098188Y-90306500D02*
X129050569Y-90354119D01*
D11*
X154613905Y-119069180D02*
X154613905Y-120069180D01*
X154613905Y-120069180D02*
X154852000Y-120069180D01*
X154852000Y-120069180D02*
X154994857Y-120021561D01*
X154994857Y-120021561D02*
X155090095Y-119926323D01*
X155090095Y-119926323D02*
X155137714Y-119831085D01*
X155137714Y-119831085D02*
X155185333Y-119640609D01*
X155185333Y-119640609D02*
X155185333Y-119497752D01*
X155185333Y-119497752D02*
X155137714Y-119307276D01*
X155137714Y-119307276D02*
X155090095Y-119212038D01*
X155090095Y-119212038D02*
X154994857Y-119116800D01*
X154994857Y-119116800D02*
X154852000Y-119069180D01*
X154852000Y-119069180D02*
X154613905Y-119069180D01*
X156137714Y-119069180D02*
X155566286Y-119069180D01*
X155852000Y-119069180D02*
X155852000Y-120069180D01*
X155852000Y-120069180D02*
X155756762Y-119926323D01*
X155756762Y-119926323D02*
X155661524Y-119831085D01*
X155661524Y-119831085D02*
X155566286Y-119783466D01*
D10*
X143227093Y-133462880D02*
X143846140Y-133462880D01*
X143846140Y-133462880D02*
X143512807Y-133081928D01*
X143512807Y-133081928D02*
X143655664Y-133081928D01*
X143655664Y-133081928D02*
X143750902Y-133034309D01*
X143750902Y-133034309D02*
X143798521Y-132986690D01*
X143798521Y-132986690D02*
X143846140Y-132891452D01*
X143846140Y-132891452D02*
X143846140Y-132653357D01*
X143846140Y-132653357D02*
X143798521Y-132558119D01*
X143798521Y-132558119D02*
X143750902Y-132510500D01*
X143750902Y-132510500D02*
X143655664Y-132462880D01*
X143655664Y-132462880D02*
X143369950Y-132462880D01*
X143369950Y-132462880D02*
X143274712Y-132510500D01*
X143274712Y-132510500D02*
X143227093Y-132558119D01*
X144274712Y-132558119D02*
X144322331Y-132510500D01*
X144322331Y-132510500D02*
X144274712Y-132462880D01*
X144274712Y-132462880D02*
X144227093Y-132510500D01*
X144227093Y-132510500D02*
X144274712Y-132558119D01*
X144274712Y-132558119D02*
X144274712Y-132462880D01*
X144655664Y-133462880D02*
X145274711Y-133462880D01*
X145274711Y-133462880D02*
X144941378Y-133081928D01*
X144941378Y-133081928D02*
X145084235Y-133081928D01*
X145084235Y-133081928D02*
X145179473Y-133034309D01*
X145179473Y-133034309D02*
X145227092Y-132986690D01*
X145227092Y-132986690D02*
X145274711Y-132891452D01*
X145274711Y-132891452D02*
X145274711Y-132653357D01*
X145274711Y-132653357D02*
X145227092Y-132558119D01*
X145227092Y-132558119D02*
X145179473Y-132510500D01*
X145179473Y-132510500D02*
X145084235Y-132462880D01*
X145084235Y-132462880D02*
X144798521Y-132462880D01*
X144798521Y-132462880D02*
X144703283Y-132510500D01*
X144703283Y-132510500D02*
X144655664Y-132558119D01*
X145560426Y-133462880D02*
X145893759Y-132462880D01*
X145893759Y-132462880D02*
X146227092Y-133462880D01*
X128574378Y-78491261D02*
X128479140Y-78538880D01*
X128479140Y-78538880D02*
X128336283Y-78538880D01*
X128336283Y-78538880D02*
X128193426Y-78491261D01*
X128193426Y-78491261D02*
X128098188Y-78396023D01*
X128098188Y-78396023D02*
X128050569Y-78300785D01*
X128050569Y-78300785D02*
X128002950Y-78110309D01*
X128002950Y-78110309D02*
X128002950Y-77967452D01*
X128002950Y-77967452D02*
X128050569Y-77776976D01*
X128050569Y-77776976D02*
X128098188Y-77681738D01*
X128098188Y-77681738D02*
X128193426Y-77586500D01*
X128193426Y-77586500D02*
X128336283Y-77538880D01*
X128336283Y-77538880D02*
X128431521Y-77538880D01*
X128431521Y-77538880D02*
X128574378Y-77586500D01*
X128574378Y-77586500D02*
X128621997Y-77634119D01*
X128621997Y-77634119D02*
X128621997Y-77967452D01*
X128621997Y-77967452D02*
X128431521Y-77967452D01*
X129050569Y-77538880D02*
X129050569Y-78538880D01*
X129050569Y-78538880D02*
X129621997Y-77538880D01*
X129621997Y-77538880D02*
X129621997Y-78538880D01*
X130098188Y-77538880D02*
X130098188Y-78538880D01*
X130098188Y-78538880D02*
X130336283Y-78538880D01*
X130336283Y-78538880D02*
X130479140Y-78491261D01*
X130479140Y-78491261D02*
X130574378Y-78396023D01*
X130574378Y-78396023D02*
X130621997Y-78300785D01*
X130621997Y-78300785D02*
X130669616Y-78110309D01*
X130669616Y-78110309D02*
X130669616Y-77967452D01*
X130669616Y-77967452D02*
X130621997Y-77776976D01*
X130621997Y-77776976D02*
X130574378Y-77681738D01*
X130574378Y-77681738D02*
X130479140Y-77586500D01*
X130479140Y-77586500D02*
X130336283Y-77538880D01*
X130336283Y-77538880D02*
X130098188Y-77538880D01*
X127479140Y-92808880D02*
X127479140Y-93808880D01*
X127955330Y-92808880D02*
X127955330Y-93808880D01*
X127955330Y-93808880D02*
X128193425Y-93808880D01*
X128193425Y-93808880D02*
X128336282Y-93761261D01*
X128336282Y-93761261D02*
X128431520Y-93666023D01*
X128431520Y-93666023D02*
X128479139Y-93570785D01*
X128479139Y-93570785D02*
X128526758Y-93380309D01*
X128526758Y-93380309D02*
X128526758Y-93237452D01*
X128526758Y-93237452D02*
X128479139Y-93046976D01*
X128479139Y-93046976D02*
X128431520Y-92951738D01*
X128431520Y-92951738D02*
X128336282Y-92856500D01*
X128336282Y-92856500D02*
X128193425Y-92808880D01*
X128193425Y-92808880D02*
X127955330Y-92808880D01*
X128717235Y-92713642D02*
X129479139Y-92713642D01*
X129669616Y-92856500D02*
X129812473Y-92808880D01*
X129812473Y-92808880D02*
X130050568Y-92808880D01*
X130050568Y-92808880D02*
X130145806Y-92856500D01*
X130145806Y-92856500D02*
X130193425Y-92904119D01*
X130193425Y-92904119D02*
X130241044Y-92999357D01*
X130241044Y-92999357D02*
X130241044Y-93094595D01*
X130241044Y-93094595D02*
X130193425Y-93189833D01*
X130193425Y-93189833D02*
X130145806Y-93237452D01*
X130145806Y-93237452D02*
X130050568Y-93285071D01*
X130050568Y-93285071D02*
X129860092Y-93332690D01*
X129860092Y-93332690D02*
X129764854Y-93380309D01*
X129764854Y-93380309D02*
X129717235Y-93427928D01*
X129717235Y-93427928D02*
X129669616Y-93523166D01*
X129669616Y-93523166D02*
X129669616Y-93618404D01*
X129669616Y-93618404D02*
X129717235Y-93713642D01*
X129717235Y-93713642D02*
X129764854Y-93761261D01*
X129764854Y-93761261D02*
X129860092Y-93808880D01*
X129860092Y-93808880D02*
X130098187Y-93808880D01*
X130098187Y-93808880D02*
X130241044Y-93761261D01*
X130669616Y-92808880D02*
X130669616Y-93808880D01*
X130669616Y-93808880D02*
X130907711Y-93808880D01*
X130907711Y-93808880D02*
X131050568Y-93761261D01*
X131050568Y-93761261D02*
X131145806Y-93666023D01*
X131145806Y-93666023D02*
X131193425Y-93570785D01*
X131193425Y-93570785D02*
X131241044Y-93380309D01*
X131241044Y-93380309D02*
X131241044Y-93237452D01*
X131241044Y-93237452D02*
X131193425Y-93046976D01*
X131193425Y-93046976D02*
X131145806Y-92951738D01*
X131145806Y-92951738D02*
X131050568Y-92856500D01*
X131050568Y-92856500D02*
X130907711Y-92808880D01*
X130907711Y-92808880D02*
X130669616Y-92808880D01*
X171913140Y-118281880D02*
X171341712Y-118281880D01*
X171627426Y-118281880D02*
X171627426Y-119281880D01*
X171627426Y-119281880D02*
X171532188Y-119139023D01*
X171532188Y-119139023D02*
X171436950Y-119043785D01*
X171436950Y-119043785D02*
X171341712Y-118996166D01*
X172770283Y-118948547D02*
X172770283Y-118281880D01*
X172532188Y-119329500D02*
X172294093Y-118615214D01*
X172294093Y-118615214D02*
X172913140Y-118615214D01*
X128574378Y-108853642D02*
X128621997Y-108901261D01*
X128621997Y-108901261D02*
X128717235Y-108948880D01*
X128717235Y-108948880D02*
X128955330Y-108948880D01*
X128955330Y-108948880D02*
X129050568Y-108901261D01*
X129050568Y-108901261D02*
X129098187Y-108853642D01*
X129098187Y-108853642D02*
X129145806Y-108758404D01*
X129145806Y-108758404D02*
X129145806Y-108663166D01*
X129145806Y-108663166D02*
X129098187Y-108520309D01*
X129098187Y-108520309D02*
X128526759Y-107948880D01*
X128526759Y-107948880D02*
X129145806Y-107948880D01*
X129526759Y-108853642D02*
X129574378Y-108901261D01*
X129574378Y-108901261D02*
X129669616Y-108948880D01*
X129669616Y-108948880D02*
X129907711Y-108948880D01*
X129907711Y-108948880D02*
X130002949Y-108901261D01*
X130002949Y-108901261D02*
X130050568Y-108853642D01*
X130050568Y-108853642D02*
X130098187Y-108758404D01*
X130098187Y-108758404D02*
X130098187Y-108663166D01*
X130098187Y-108663166D02*
X130050568Y-108520309D01*
X130050568Y-108520309D02*
X129479140Y-107948880D01*
X129479140Y-107948880D02*
X130098187Y-107948880D01*
X171913140Y-111524261D02*
X171817902Y-111571880D01*
X171817902Y-111571880D02*
X171675045Y-111571880D01*
X171675045Y-111571880D02*
X171532188Y-111524261D01*
X171532188Y-111524261D02*
X171436950Y-111429023D01*
X171436950Y-111429023D02*
X171389331Y-111333785D01*
X171389331Y-111333785D02*
X171341712Y-111143309D01*
X171341712Y-111143309D02*
X171341712Y-111000452D01*
X171341712Y-111000452D02*
X171389331Y-110809976D01*
X171389331Y-110809976D02*
X171436950Y-110714738D01*
X171436950Y-110714738D02*
X171532188Y-110619500D01*
X171532188Y-110619500D02*
X171675045Y-110571880D01*
X171675045Y-110571880D02*
X171770283Y-110571880D01*
X171770283Y-110571880D02*
X171913140Y-110619500D01*
X171913140Y-110619500D02*
X171960759Y-110667119D01*
X171960759Y-110667119D02*
X171960759Y-111000452D01*
X171960759Y-111000452D02*
X171770283Y-111000452D01*
X172389331Y-110571880D02*
X172389331Y-111571880D01*
X172389331Y-111571880D02*
X172960759Y-110571880D01*
X172960759Y-110571880D02*
X172960759Y-111571880D01*
X173436950Y-110571880D02*
X173436950Y-111571880D01*
X173436950Y-111571880D02*
X173675045Y-111571880D01*
X173675045Y-111571880D02*
X173817902Y-111524261D01*
X173817902Y-111524261D02*
X173913140Y-111429023D01*
X173913140Y-111429023D02*
X173960759Y-111333785D01*
X173960759Y-111333785D02*
X174008378Y-111143309D01*
X174008378Y-111143309D02*
X174008378Y-111000452D01*
X174008378Y-111000452D02*
X173960759Y-110809976D01*
X173960759Y-110809976D02*
X173913140Y-110714738D01*
X173913140Y-110714738D02*
X173817902Y-110619500D01*
X173817902Y-110619500D02*
X173675045Y-110571880D01*
X173675045Y-110571880D02*
X173436950Y-110571880D01*
X171865521Y-124481880D02*
X171389331Y-124481880D01*
X171389331Y-124481880D02*
X171341712Y-124005690D01*
X171341712Y-124005690D02*
X171389331Y-124053309D01*
X171389331Y-124053309D02*
X171484569Y-124100928D01*
X171484569Y-124100928D02*
X171722664Y-124100928D01*
X171722664Y-124100928D02*
X171817902Y-124053309D01*
X171817902Y-124053309D02*
X171865521Y-124005690D01*
X171865521Y-124005690D02*
X171913140Y-123910452D01*
X171913140Y-123910452D02*
X171913140Y-123672357D01*
X171913140Y-123672357D02*
X171865521Y-123577119D01*
X171865521Y-123577119D02*
X171817902Y-123529500D01*
X171817902Y-123529500D02*
X171722664Y-123481880D01*
X171722664Y-123481880D02*
X171484569Y-123481880D01*
X171484569Y-123481880D02*
X171389331Y-123529500D01*
X171389331Y-123529500D02*
X171341712Y-123577119D01*
X172198855Y-124481880D02*
X172532188Y-123481880D01*
X172532188Y-123481880D02*
X172865521Y-124481880D01*
X128574378Y-80983642D02*
X128621997Y-81031261D01*
X128621997Y-81031261D02*
X128717235Y-81078880D01*
X128717235Y-81078880D02*
X128955330Y-81078880D01*
X128955330Y-81078880D02*
X129050568Y-81031261D01*
X129050568Y-81031261D02*
X129098187Y-80983642D01*
X129098187Y-80983642D02*
X129145806Y-80888404D01*
X129145806Y-80888404D02*
X129145806Y-80793166D01*
X129145806Y-80793166D02*
X129098187Y-80650309D01*
X129098187Y-80650309D02*
X128526759Y-80078880D01*
X128526759Y-80078880D02*
X129145806Y-80078880D01*
X130002949Y-81078880D02*
X129812473Y-81078880D01*
X129812473Y-81078880D02*
X129717235Y-81031261D01*
X129717235Y-81031261D02*
X129669616Y-80983642D01*
X129669616Y-80983642D02*
X129574378Y-80840785D01*
X129574378Y-80840785D02*
X129526759Y-80650309D01*
X129526759Y-80650309D02*
X129526759Y-80269357D01*
X129526759Y-80269357D02*
X129574378Y-80174119D01*
X129574378Y-80174119D02*
X129621997Y-80126500D01*
X129621997Y-80126500D02*
X129717235Y-80078880D01*
X129717235Y-80078880D02*
X129907711Y-80078880D01*
X129907711Y-80078880D02*
X130002949Y-80126500D01*
X130002949Y-80126500D02*
X130050568Y-80174119D01*
X130050568Y-80174119D02*
X130098187Y-80269357D01*
X130098187Y-80269357D02*
X130098187Y-80507452D01*
X130098187Y-80507452D02*
X130050568Y-80602690D01*
X130050568Y-80602690D02*
X130002949Y-80650309D01*
X130002949Y-80650309D02*
X129907711Y-80697928D01*
X129907711Y-80697928D02*
X129717235Y-80697928D01*
X129717235Y-80697928D02*
X129621997Y-80650309D01*
X129621997Y-80650309D02*
X129574378Y-80602690D01*
X129574378Y-80602690D02*
X129526759Y-80507452D01*
D11*
X154709905Y-114099180D02*
X154709905Y-115099180D01*
X154709905Y-115099180D02*
X154948000Y-115099180D01*
X154948000Y-115099180D02*
X155090857Y-115051561D01*
X155090857Y-115051561D02*
X155186095Y-114956323D01*
X155186095Y-114956323D02*
X155233714Y-114861085D01*
X155233714Y-114861085D02*
X155281333Y-114670609D01*
X155281333Y-114670609D02*
X155281333Y-114527752D01*
X155281333Y-114527752D02*
X155233714Y-114337276D01*
X155233714Y-114337276D02*
X155186095Y-114242038D01*
X155186095Y-114242038D02*
X155090857Y-114146800D01*
X155090857Y-114146800D02*
X154948000Y-114099180D01*
X154948000Y-114099180D02*
X154709905Y-114099180D01*
X155662286Y-115003942D02*
X155709905Y-115051561D01*
X155709905Y-115051561D02*
X155805143Y-115099180D01*
X155805143Y-115099180D02*
X156043238Y-115099180D01*
X156043238Y-115099180D02*
X156138476Y-115051561D01*
X156138476Y-115051561D02*
X156186095Y-115003942D01*
X156186095Y-115003942D02*
X156233714Y-114908704D01*
X156233714Y-114908704D02*
X156233714Y-114813466D01*
X156233714Y-114813466D02*
X156186095Y-114670609D01*
X156186095Y-114670609D02*
X155614667Y-114099180D01*
X155614667Y-114099180D02*
X156233714Y-114099180D01*
D10*
X129526759Y-88738880D02*
X129336283Y-88738880D01*
X129336283Y-88738880D02*
X129241045Y-88691261D01*
X129241045Y-88691261D02*
X129193426Y-88643642D01*
X129193426Y-88643642D02*
X129098188Y-88500785D01*
X129098188Y-88500785D02*
X129050569Y-88310309D01*
X129050569Y-88310309D02*
X129050569Y-87929357D01*
X129050569Y-87929357D02*
X129098188Y-87834119D01*
X129098188Y-87834119D02*
X129145807Y-87786500D01*
X129145807Y-87786500D02*
X129241045Y-87738880D01*
X129241045Y-87738880D02*
X129431521Y-87738880D01*
X129431521Y-87738880D02*
X129526759Y-87786500D01*
X129526759Y-87786500D02*
X129574378Y-87834119D01*
X129574378Y-87834119D02*
X129621997Y-87929357D01*
X129621997Y-87929357D02*
X129621997Y-88167452D01*
X129621997Y-88167452D02*
X129574378Y-88262690D01*
X129574378Y-88262690D02*
X129526759Y-88310309D01*
X129526759Y-88310309D02*
X129431521Y-88357928D01*
X129431521Y-88357928D02*
X129241045Y-88357928D01*
X129241045Y-88357928D02*
X129145807Y-88310309D01*
X129145807Y-88310309D02*
X129098188Y-88262690D01*
X129098188Y-88262690D02*
X129050569Y-88167452D01*
X171913140Y-104024261D02*
X171817902Y-104071880D01*
X171817902Y-104071880D02*
X171675045Y-104071880D01*
X171675045Y-104071880D02*
X171532188Y-104024261D01*
X171532188Y-104024261D02*
X171436950Y-103929023D01*
X171436950Y-103929023D02*
X171389331Y-103833785D01*
X171389331Y-103833785D02*
X171341712Y-103643309D01*
X171341712Y-103643309D02*
X171341712Y-103500452D01*
X171341712Y-103500452D02*
X171389331Y-103309976D01*
X171389331Y-103309976D02*
X171436950Y-103214738D01*
X171436950Y-103214738D02*
X171532188Y-103119500D01*
X171532188Y-103119500D02*
X171675045Y-103071880D01*
X171675045Y-103071880D02*
X171770283Y-103071880D01*
X171770283Y-103071880D02*
X171913140Y-103119500D01*
X171913140Y-103119500D02*
X171960759Y-103167119D01*
X171960759Y-103167119D02*
X171960759Y-103500452D01*
X171960759Y-103500452D02*
X171770283Y-103500452D01*
X172389331Y-103071880D02*
X172389331Y-104071880D01*
X172389331Y-104071880D02*
X172960759Y-103071880D01*
X172960759Y-103071880D02*
X172960759Y-104071880D01*
X173436950Y-103071880D02*
X173436950Y-104071880D01*
X173436950Y-104071880D02*
X173675045Y-104071880D01*
X173675045Y-104071880D02*
X173817902Y-104024261D01*
X173817902Y-104024261D02*
X173913140Y-103929023D01*
X173913140Y-103929023D02*
X173960759Y-103833785D01*
X173960759Y-103833785D02*
X174008378Y-103643309D01*
X174008378Y-103643309D02*
X174008378Y-103500452D01*
X174008378Y-103500452D02*
X173960759Y-103309976D01*
X173960759Y-103309976D02*
X173913140Y-103214738D01*
X173913140Y-103214738D02*
X173817902Y-103119500D01*
X173817902Y-103119500D02*
X173675045Y-103071880D01*
X173675045Y-103071880D02*
X173436950Y-103071880D01*
X171389331Y-92981880D02*
X171389331Y-93981880D01*
X171865521Y-92981880D02*
X171865521Y-93981880D01*
X171865521Y-93981880D02*
X172103616Y-93981880D01*
X172103616Y-93981880D02*
X172246473Y-93934261D01*
X172246473Y-93934261D02*
X172341711Y-93839023D01*
X172341711Y-93839023D02*
X172389330Y-93743785D01*
X172389330Y-93743785D02*
X172436949Y-93553309D01*
X172436949Y-93553309D02*
X172436949Y-93410452D01*
X172436949Y-93410452D02*
X172389330Y-93219976D01*
X172389330Y-93219976D02*
X172341711Y-93124738D01*
X172341711Y-93124738D02*
X172246473Y-93029500D01*
X172246473Y-93029500D02*
X172103616Y-92981880D01*
X172103616Y-92981880D02*
X171865521Y-92981880D01*
X172627426Y-92886642D02*
X173389330Y-92886642D01*
X173579807Y-93029500D02*
X173722664Y-92981880D01*
X173722664Y-92981880D02*
X173960759Y-92981880D01*
X173960759Y-92981880D02*
X174055997Y-93029500D01*
X174055997Y-93029500D02*
X174103616Y-93077119D01*
X174103616Y-93077119D02*
X174151235Y-93172357D01*
X174151235Y-93172357D02*
X174151235Y-93267595D01*
X174151235Y-93267595D02*
X174103616Y-93362833D01*
X174103616Y-93362833D02*
X174055997Y-93410452D01*
X174055997Y-93410452D02*
X173960759Y-93458071D01*
X173960759Y-93458071D02*
X173770283Y-93505690D01*
X173770283Y-93505690D02*
X173675045Y-93553309D01*
X173675045Y-93553309D02*
X173627426Y-93600928D01*
X173627426Y-93600928D02*
X173579807Y-93696166D01*
X173579807Y-93696166D02*
X173579807Y-93791404D01*
X173579807Y-93791404D02*
X173627426Y-93886642D01*
X173627426Y-93886642D02*
X173675045Y-93934261D01*
X173675045Y-93934261D02*
X173770283Y-93981880D01*
X173770283Y-93981880D02*
X174008378Y-93981880D01*
X174008378Y-93981880D02*
X174151235Y-93934261D01*
X175151235Y-93077119D02*
X175103616Y-93029500D01*
X175103616Y-93029500D02*
X174960759Y-92981880D01*
X174960759Y-92981880D02*
X174865521Y-92981880D01*
X174865521Y-92981880D02*
X174722664Y-93029500D01*
X174722664Y-93029500D02*
X174627426Y-93124738D01*
X174627426Y-93124738D02*
X174579807Y-93219976D01*
X174579807Y-93219976D02*
X174532188Y-93410452D01*
X174532188Y-93410452D02*
X174532188Y-93553309D01*
X174532188Y-93553309D02*
X174579807Y-93743785D01*
X174579807Y-93743785D02*
X174627426Y-93839023D01*
X174627426Y-93839023D02*
X174722664Y-93934261D01*
X174722664Y-93934261D02*
X174865521Y-93981880D01*
X174865521Y-93981880D02*
X174960759Y-93981880D01*
X174960759Y-93981880D02*
X175103616Y-93934261D01*
X175103616Y-93934261D02*
X175151235Y-93886642D01*
X128574378Y-96311261D02*
X128479140Y-96358880D01*
X128479140Y-96358880D02*
X128336283Y-96358880D01*
X128336283Y-96358880D02*
X128193426Y-96311261D01*
X128193426Y-96311261D02*
X128098188Y-96216023D01*
X128098188Y-96216023D02*
X128050569Y-96120785D01*
X128050569Y-96120785D02*
X128002950Y-95930309D01*
X128002950Y-95930309D02*
X128002950Y-95787452D01*
X128002950Y-95787452D02*
X128050569Y-95596976D01*
X128050569Y-95596976D02*
X128098188Y-95501738D01*
X128098188Y-95501738D02*
X128193426Y-95406500D01*
X128193426Y-95406500D02*
X128336283Y-95358880D01*
X128336283Y-95358880D02*
X128431521Y-95358880D01*
X128431521Y-95358880D02*
X128574378Y-95406500D01*
X128574378Y-95406500D02*
X128621997Y-95454119D01*
X128621997Y-95454119D02*
X128621997Y-95787452D01*
X128621997Y-95787452D02*
X128431521Y-95787452D01*
X129050569Y-95358880D02*
X129050569Y-96358880D01*
X129050569Y-96358880D02*
X129621997Y-95358880D01*
X129621997Y-95358880D02*
X129621997Y-96358880D01*
X130098188Y-95358880D02*
X130098188Y-96358880D01*
X130098188Y-96358880D02*
X130336283Y-96358880D01*
X130336283Y-96358880D02*
X130479140Y-96311261D01*
X130479140Y-96311261D02*
X130574378Y-96216023D01*
X130574378Y-96216023D02*
X130621997Y-96120785D01*
X130621997Y-96120785D02*
X130669616Y-95930309D01*
X130669616Y-95930309D02*
X130669616Y-95787452D01*
X130669616Y-95787452D02*
X130621997Y-95596976D01*
X130621997Y-95596976D02*
X130574378Y-95501738D01*
X130574378Y-95501738D02*
X130479140Y-95406500D01*
X130479140Y-95406500D02*
X130336283Y-95358880D01*
X130336283Y-95358880D02*
X130098188Y-95358880D01*
X129050569Y-124273642D02*
X129098188Y-124321261D01*
X129098188Y-124321261D02*
X129193426Y-124368880D01*
X129193426Y-124368880D02*
X129431521Y-124368880D01*
X129431521Y-124368880D02*
X129526759Y-124321261D01*
X129526759Y-124321261D02*
X129574378Y-124273642D01*
X129574378Y-124273642D02*
X129621997Y-124178404D01*
X129621997Y-124178404D02*
X129621997Y-124083166D01*
X129621997Y-124083166D02*
X129574378Y-123940309D01*
X129574378Y-123940309D02*
X129002950Y-123368880D01*
X129002950Y-123368880D02*
X129621997Y-123368880D01*
X171294093Y-96471880D02*
X171960759Y-96471880D01*
X171960759Y-96471880D02*
X171532188Y-95471880D01*
X171532188Y-98543309D02*
X171436950Y-98590928D01*
X171436950Y-98590928D02*
X171389331Y-98638547D01*
X171389331Y-98638547D02*
X171341712Y-98733785D01*
X171341712Y-98733785D02*
X171341712Y-98781404D01*
X171341712Y-98781404D02*
X171389331Y-98876642D01*
X171389331Y-98876642D02*
X171436950Y-98924261D01*
X171436950Y-98924261D02*
X171532188Y-98971880D01*
X171532188Y-98971880D02*
X171722664Y-98971880D01*
X171722664Y-98971880D02*
X171817902Y-98924261D01*
X171817902Y-98924261D02*
X171865521Y-98876642D01*
X171865521Y-98876642D02*
X171913140Y-98781404D01*
X171913140Y-98781404D02*
X171913140Y-98733785D01*
X171913140Y-98733785D02*
X171865521Y-98638547D01*
X171865521Y-98638547D02*
X171817902Y-98590928D01*
X171817902Y-98590928D02*
X171722664Y-98543309D01*
X171722664Y-98543309D02*
X171532188Y-98543309D01*
X171532188Y-98543309D02*
X171436950Y-98495690D01*
X171436950Y-98495690D02*
X171389331Y-98448071D01*
X171389331Y-98448071D02*
X171341712Y-98352833D01*
X171341712Y-98352833D02*
X171341712Y-98162357D01*
X171341712Y-98162357D02*
X171389331Y-98067119D01*
X171389331Y-98067119D02*
X171436950Y-98019500D01*
X171436950Y-98019500D02*
X171532188Y-97971880D01*
X171532188Y-97971880D02*
X171722664Y-97971880D01*
X171722664Y-97971880D02*
X171817902Y-98019500D01*
X171817902Y-98019500D02*
X171865521Y-98067119D01*
X171865521Y-98067119D02*
X171913140Y-98162357D01*
X171913140Y-98162357D02*
X171913140Y-98352833D01*
X171913140Y-98352833D02*
X171865521Y-98448071D01*
X171865521Y-98448071D02*
X171817902Y-98495690D01*
X171817902Y-98495690D02*
X171722664Y-98543309D01*
X171341712Y-78376642D02*
X171389331Y-78424261D01*
X171389331Y-78424261D02*
X171484569Y-78471880D01*
X171484569Y-78471880D02*
X171722664Y-78471880D01*
X171722664Y-78471880D02*
X171817902Y-78424261D01*
X171817902Y-78424261D02*
X171865521Y-78376642D01*
X171865521Y-78376642D02*
X171913140Y-78281404D01*
X171913140Y-78281404D02*
X171913140Y-78186166D01*
X171913140Y-78186166D02*
X171865521Y-78043309D01*
X171865521Y-78043309D02*
X171294093Y-77471880D01*
X171294093Y-77471880D02*
X171913140Y-77471880D01*
X172865521Y-77471880D02*
X172294093Y-77471880D01*
X172579807Y-77471880D02*
X172579807Y-78471880D01*
X172579807Y-78471880D02*
X172484569Y-78329023D01*
X172484569Y-78329023D02*
X172389331Y-78233785D01*
X172389331Y-78233785D02*
X172294093Y-78186166D01*
X171341712Y-108966642D02*
X171389331Y-109014261D01*
X171389331Y-109014261D02*
X171484569Y-109061880D01*
X171484569Y-109061880D02*
X171722664Y-109061880D01*
X171722664Y-109061880D02*
X171817902Y-109014261D01*
X171817902Y-109014261D02*
X171865521Y-108966642D01*
X171865521Y-108966642D02*
X171913140Y-108871404D01*
X171913140Y-108871404D02*
X171913140Y-108776166D01*
X171913140Y-108776166D02*
X171865521Y-108633309D01*
X171865521Y-108633309D02*
X171294093Y-108061880D01*
X171294093Y-108061880D02*
X171913140Y-108061880D01*
X172246474Y-109061880D02*
X172865521Y-109061880D01*
X172865521Y-109061880D02*
X172532188Y-108680928D01*
X172532188Y-108680928D02*
X172675045Y-108680928D01*
X172675045Y-108680928D02*
X172770283Y-108633309D01*
X172770283Y-108633309D02*
X172817902Y-108585690D01*
X172817902Y-108585690D02*
X172865521Y-108490452D01*
X172865521Y-108490452D02*
X172865521Y-108252357D01*
X172865521Y-108252357D02*
X172817902Y-108157119D01*
X172817902Y-108157119D02*
X172770283Y-108109500D01*
X172770283Y-108109500D02*
X172675045Y-108061880D01*
X172675045Y-108061880D02*
X172389331Y-108061880D01*
X172389331Y-108061880D02*
X172294093Y-108109500D01*
X172294093Y-108109500D02*
X172246474Y-108157119D01*
X128574378Y-116671261D02*
X128479140Y-116718880D01*
X128479140Y-116718880D02*
X128336283Y-116718880D01*
X128336283Y-116718880D02*
X128193426Y-116671261D01*
X128193426Y-116671261D02*
X128098188Y-116576023D01*
X128098188Y-116576023D02*
X128050569Y-116480785D01*
X128050569Y-116480785D02*
X128002950Y-116290309D01*
X128002950Y-116290309D02*
X128002950Y-116147452D01*
X128002950Y-116147452D02*
X128050569Y-115956976D01*
X128050569Y-115956976D02*
X128098188Y-115861738D01*
X128098188Y-115861738D02*
X128193426Y-115766500D01*
X128193426Y-115766500D02*
X128336283Y-115718880D01*
X128336283Y-115718880D02*
X128431521Y-115718880D01*
X128431521Y-115718880D02*
X128574378Y-115766500D01*
X128574378Y-115766500D02*
X128621997Y-115814119D01*
X128621997Y-115814119D02*
X128621997Y-116147452D01*
X128621997Y-116147452D02*
X128431521Y-116147452D01*
X129050569Y-115718880D02*
X129050569Y-116718880D01*
X129050569Y-116718880D02*
X129621997Y-115718880D01*
X129621997Y-115718880D02*
X129621997Y-116718880D01*
X130098188Y-115718880D02*
X130098188Y-116718880D01*
X130098188Y-116718880D02*
X130336283Y-116718880D01*
X130336283Y-116718880D02*
X130479140Y-116671261D01*
X130479140Y-116671261D02*
X130574378Y-116576023D01*
X130574378Y-116576023D02*
X130621997Y-116480785D01*
X130621997Y-116480785D02*
X130669616Y-116290309D01*
X130669616Y-116290309D02*
X130669616Y-116147452D01*
X130669616Y-116147452D02*
X130621997Y-115956976D01*
X130621997Y-115956976D02*
X130574378Y-115861738D01*
X130574378Y-115861738D02*
X130479140Y-115766500D01*
X130479140Y-115766500D02*
X130336283Y-115718880D01*
X130336283Y-115718880D02*
X130098188Y-115718880D01*
D11*
X154582905Y-109019180D02*
X154582905Y-110019180D01*
X154582905Y-110019180D02*
X154821000Y-110019180D01*
X154821000Y-110019180D02*
X154963857Y-109971561D01*
X154963857Y-109971561D02*
X155059095Y-109876323D01*
X155059095Y-109876323D02*
X155106714Y-109781085D01*
X155106714Y-109781085D02*
X155154333Y-109590609D01*
X155154333Y-109590609D02*
X155154333Y-109447752D01*
X155154333Y-109447752D02*
X155106714Y-109257276D01*
X155106714Y-109257276D02*
X155059095Y-109162038D01*
X155059095Y-109162038D02*
X154963857Y-109066800D01*
X154963857Y-109066800D02*
X154821000Y-109019180D01*
X154821000Y-109019180D02*
X154582905Y-109019180D01*
X155487667Y-110019180D02*
X156106714Y-110019180D01*
X156106714Y-110019180D02*
X155773381Y-109638228D01*
X155773381Y-109638228D02*
X155916238Y-109638228D01*
X155916238Y-109638228D02*
X156011476Y-109590609D01*
X156011476Y-109590609D02*
X156059095Y-109542990D01*
X156059095Y-109542990D02*
X156106714Y-109447752D01*
X156106714Y-109447752D02*
X156106714Y-109209657D01*
X156106714Y-109209657D02*
X156059095Y-109114419D01*
X156059095Y-109114419D02*
X156011476Y-109066800D01*
X156011476Y-109066800D02*
X155916238Y-109019180D01*
X155916238Y-109019180D02*
X155630524Y-109019180D01*
X155630524Y-109019180D02*
X155535286Y-109066800D01*
X155535286Y-109066800D02*
X155487667Y-109114419D01*
D10*
X129145806Y-112928880D02*
X128574378Y-112928880D01*
X128860092Y-112928880D02*
X128860092Y-113928880D01*
X128860092Y-113928880D02*
X128764854Y-113786023D01*
X128764854Y-113786023D02*
X128669616Y-113690785D01*
X128669616Y-113690785D02*
X128574378Y-113643166D01*
X129479140Y-113928880D02*
X130145806Y-113928880D01*
X130145806Y-113928880D02*
X129717235Y-112928880D01*
X129145806Y-97858880D02*
X128574378Y-97858880D01*
X128860092Y-97858880D02*
X128860092Y-98858880D01*
X128860092Y-98858880D02*
X128764854Y-98716023D01*
X128764854Y-98716023D02*
X128669616Y-98620785D01*
X128669616Y-98620785D02*
X128574378Y-98573166D01*
X130098187Y-97858880D02*
X129526759Y-97858880D01*
X129812473Y-97858880D02*
X129812473Y-98858880D01*
X129812473Y-98858880D02*
X129717235Y-98716023D01*
X129717235Y-98716023D02*
X129621997Y-98620785D01*
X129621997Y-98620785D02*
X129526759Y-98573166D01*
X171913140Y-86254261D02*
X171817902Y-86301880D01*
X171817902Y-86301880D02*
X171675045Y-86301880D01*
X171675045Y-86301880D02*
X171532188Y-86254261D01*
X171532188Y-86254261D02*
X171436950Y-86159023D01*
X171436950Y-86159023D02*
X171389331Y-86063785D01*
X171389331Y-86063785D02*
X171341712Y-85873309D01*
X171341712Y-85873309D02*
X171341712Y-85730452D01*
X171341712Y-85730452D02*
X171389331Y-85539976D01*
X171389331Y-85539976D02*
X171436950Y-85444738D01*
X171436950Y-85444738D02*
X171532188Y-85349500D01*
X171532188Y-85349500D02*
X171675045Y-85301880D01*
X171675045Y-85301880D02*
X171770283Y-85301880D01*
X171770283Y-85301880D02*
X171913140Y-85349500D01*
X171913140Y-85349500D02*
X171960759Y-85397119D01*
X171960759Y-85397119D02*
X171960759Y-85730452D01*
X171960759Y-85730452D02*
X171770283Y-85730452D01*
X172389331Y-85301880D02*
X172389331Y-86301880D01*
X172389331Y-86301880D02*
X172960759Y-85301880D01*
X172960759Y-85301880D02*
X172960759Y-86301880D01*
X173436950Y-85301880D02*
X173436950Y-86301880D01*
X173436950Y-86301880D02*
X173675045Y-86301880D01*
X173675045Y-86301880D02*
X173817902Y-86254261D01*
X173817902Y-86254261D02*
X173913140Y-86159023D01*
X173913140Y-86159023D02*
X173960759Y-86063785D01*
X173960759Y-86063785D02*
X174008378Y-85873309D01*
X174008378Y-85873309D02*
X174008378Y-85730452D01*
X174008378Y-85730452D02*
X173960759Y-85539976D01*
X173960759Y-85539976D02*
X173913140Y-85444738D01*
X173913140Y-85444738D02*
X173817902Y-85349500D01*
X173817902Y-85349500D02*
X173675045Y-85301880D01*
X173675045Y-85301880D02*
X173436950Y-85301880D01*
X171913140Y-82751880D02*
X171341712Y-82751880D01*
X171627426Y-82751880D02*
X171627426Y-83751880D01*
X171627426Y-83751880D02*
X171532188Y-83609023D01*
X171532188Y-83609023D02*
X171436950Y-83513785D01*
X171436950Y-83513785D02*
X171341712Y-83466166D01*
X172770283Y-83751880D02*
X172579807Y-83751880D01*
X172579807Y-83751880D02*
X172484569Y-83704261D01*
X172484569Y-83704261D02*
X172436950Y-83656642D01*
X172436950Y-83656642D02*
X172341712Y-83513785D01*
X172341712Y-83513785D02*
X172294093Y-83323309D01*
X172294093Y-83323309D02*
X172294093Y-82942357D01*
X172294093Y-82942357D02*
X172341712Y-82847119D01*
X172341712Y-82847119D02*
X172389331Y-82799500D01*
X172389331Y-82799500D02*
X172484569Y-82751880D01*
X172484569Y-82751880D02*
X172675045Y-82751880D01*
X172675045Y-82751880D02*
X172770283Y-82799500D01*
X172770283Y-82799500D02*
X172817902Y-82847119D01*
X172817902Y-82847119D02*
X172865521Y-82942357D01*
X172865521Y-82942357D02*
X172865521Y-83180452D01*
X172865521Y-83180452D02*
X172817902Y-83275690D01*
X172817902Y-83275690D02*
X172770283Y-83323309D01*
X172770283Y-83323309D02*
X172675045Y-83370928D01*
X172675045Y-83370928D02*
X172484569Y-83370928D01*
X172484569Y-83370928D02*
X172389331Y-83323309D01*
X172389331Y-83323309D02*
X172341712Y-83275690D01*
X172341712Y-83275690D02*
X172294093Y-83180452D01*
X128574378Y-111363642D02*
X128621997Y-111411261D01*
X128621997Y-111411261D02*
X128717235Y-111458880D01*
X128717235Y-111458880D02*
X128955330Y-111458880D01*
X128955330Y-111458880D02*
X129050568Y-111411261D01*
X129050568Y-111411261D02*
X129098187Y-111363642D01*
X129098187Y-111363642D02*
X129145806Y-111268404D01*
X129145806Y-111268404D02*
X129145806Y-111173166D01*
X129145806Y-111173166D02*
X129098187Y-111030309D01*
X129098187Y-111030309D02*
X128526759Y-110458880D01*
X128526759Y-110458880D02*
X129145806Y-110458880D01*
X129479140Y-111458880D02*
X130145806Y-111458880D01*
X130145806Y-111458880D02*
X129717235Y-110458880D01*
X171341712Y-101456642D02*
X171389331Y-101504261D01*
X171389331Y-101504261D02*
X171484569Y-101551880D01*
X171484569Y-101551880D02*
X171722664Y-101551880D01*
X171722664Y-101551880D02*
X171817902Y-101504261D01*
X171817902Y-101504261D02*
X171865521Y-101456642D01*
X171865521Y-101456642D02*
X171913140Y-101361404D01*
X171913140Y-101361404D02*
X171913140Y-101266166D01*
X171913140Y-101266166D02*
X171865521Y-101123309D01*
X171865521Y-101123309D02*
X171294093Y-100551880D01*
X171294093Y-100551880D02*
X171913140Y-100551880D01*
X172817902Y-101551880D02*
X172341712Y-101551880D01*
X172341712Y-101551880D02*
X172294093Y-101075690D01*
X172294093Y-101075690D02*
X172341712Y-101123309D01*
X172341712Y-101123309D02*
X172436950Y-101170928D01*
X172436950Y-101170928D02*
X172675045Y-101170928D01*
X172675045Y-101170928D02*
X172770283Y-101123309D01*
X172770283Y-101123309D02*
X172817902Y-101075690D01*
X172817902Y-101075690D02*
X172865521Y-100980452D01*
X172865521Y-100980452D02*
X172865521Y-100742357D01*
X172865521Y-100742357D02*
X172817902Y-100647119D01*
X172817902Y-100647119D02*
X172770283Y-100599500D01*
X172770283Y-100599500D02*
X172675045Y-100551880D01*
X172675045Y-100551880D02*
X172436950Y-100551880D01*
X172436950Y-100551880D02*
X172341712Y-100599500D01*
X172341712Y-100599500D02*
X172294093Y-100647119D01*
X171341712Y-106556642D02*
X171389331Y-106604261D01*
X171389331Y-106604261D02*
X171484569Y-106651880D01*
X171484569Y-106651880D02*
X171722664Y-106651880D01*
X171722664Y-106651880D02*
X171817902Y-106604261D01*
X171817902Y-106604261D02*
X171865521Y-106556642D01*
X171865521Y-106556642D02*
X171913140Y-106461404D01*
X171913140Y-106461404D02*
X171913140Y-106366166D01*
X171913140Y-106366166D02*
X171865521Y-106223309D01*
X171865521Y-106223309D02*
X171294093Y-105651880D01*
X171294093Y-105651880D02*
X171913140Y-105651880D01*
X172770283Y-106318547D02*
X172770283Y-105651880D01*
X172532188Y-106699500D02*
X172294093Y-105985214D01*
X172294093Y-105985214D02*
X172913140Y-105985214D01*
X129145806Y-102958880D02*
X128574378Y-102958880D01*
X128860092Y-102958880D02*
X128860092Y-103958880D01*
X128860092Y-103958880D02*
X128764854Y-103816023D01*
X128764854Y-103816023D02*
X128669616Y-103720785D01*
X128669616Y-103720785D02*
X128574378Y-103673166D01*
X129764854Y-103958880D02*
X129860092Y-103958880D01*
X129860092Y-103958880D02*
X129955330Y-103911261D01*
X129955330Y-103911261D02*
X130002949Y-103863642D01*
X130002949Y-103863642D02*
X130050568Y-103768404D01*
X130050568Y-103768404D02*
X130098187Y-103577928D01*
X130098187Y-103577928D02*
X130098187Y-103339833D01*
X130098187Y-103339833D02*
X130050568Y-103149357D01*
X130050568Y-103149357D02*
X130002949Y-103054119D01*
X130002949Y-103054119D02*
X129955330Y-103006500D01*
X129955330Y-103006500D02*
X129860092Y-102958880D01*
X129860092Y-102958880D02*
X129764854Y-102958880D01*
X129764854Y-102958880D02*
X129669616Y-103006500D01*
X129669616Y-103006500D02*
X129621997Y-103054119D01*
X129621997Y-103054119D02*
X129574378Y-103149357D01*
X129574378Y-103149357D02*
X129526759Y-103339833D01*
X129526759Y-103339833D02*
X129526759Y-103577928D01*
X129526759Y-103577928D02*
X129574378Y-103768404D01*
X129574378Y-103768404D02*
X129621997Y-103863642D01*
X129621997Y-103863642D02*
X129669616Y-103911261D01*
X129669616Y-103911261D02*
X129764854Y-103958880D01*
D11*
X145730207Y-95674180D02*
X145396874Y-96150371D01*
X145158779Y-95674180D02*
X145158779Y-96674180D01*
X145158779Y-96674180D02*
X145539731Y-96674180D01*
X145539731Y-96674180D02*
X145634969Y-96626561D01*
X145634969Y-96626561D02*
X145682588Y-96578942D01*
X145682588Y-96578942D02*
X145730207Y-96483704D01*
X145730207Y-96483704D02*
X145730207Y-96340847D01*
X145730207Y-96340847D02*
X145682588Y-96245609D01*
X145682588Y-96245609D02*
X145634969Y-96197990D01*
X145634969Y-96197990D02*
X145539731Y-96150371D01*
X145539731Y-96150371D02*
X145158779Y-96150371D01*
X146587350Y-95674180D02*
X146587350Y-96197990D01*
X146587350Y-96197990D02*
X146539731Y-96293228D01*
X146539731Y-96293228D02*
X146444493Y-96340847D01*
X146444493Y-96340847D02*
X146254017Y-96340847D01*
X146254017Y-96340847D02*
X146158779Y-96293228D01*
X146587350Y-95721800D02*
X146492112Y-95674180D01*
X146492112Y-95674180D02*
X146254017Y-95674180D01*
X146254017Y-95674180D02*
X146158779Y-95721800D01*
X146158779Y-95721800D02*
X146111160Y-95817038D01*
X146111160Y-95817038D02*
X146111160Y-95912276D01*
X146111160Y-95912276D02*
X146158779Y-96007514D01*
X146158779Y-96007514D02*
X146254017Y-96055133D01*
X146254017Y-96055133D02*
X146492112Y-96055133D01*
X146492112Y-96055133D02*
X146587350Y-96102752D01*
X147015922Y-95721800D02*
X147111160Y-95674180D01*
X147111160Y-95674180D02*
X147301636Y-95674180D01*
X147301636Y-95674180D02*
X147396874Y-95721800D01*
X147396874Y-95721800D02*
X147444493Y-95817038D01*
X147444493Y-95817038D02*
X147444493Y-95864657D01*
X147444493Y-95864657D02*
X147396874Y-95959895D01*
X147396874Y-95959895D02*
X147301636Y-96007514D01*
X147301636Y-96007514D02*
X147158779Y-96007514D01*
X147158779Y-96007514D02*
X147063541Y-96055133D01*
X147063541Y-96055133D02*
X147015922Y-96150371D01*
X147015922Y-96150371D02*
X147015922Y-96197990D01*
X147015922Y-96197990D02*
X147063541Y-96293228D01*
X147063541Y-96293228D02*
X147158779Y-96340847D01*
X147158779Y-96340847D02*
X147301636Y-96340847D01*
X147301636Y-96340847D02*
X147396874Y-96293228D01*
X147873065Y-96340847D02*
X147873065Y-95340847D01*
X147873065Y-96293228D02*
X147968303Y-96340847D01*
X147968303Y-96340847D02*
X148158779Y-96340847D01*
X148158779Y-96340847D02*
X148254017Y-96293228D01*
X148254017Y-96293228D02*
X148301636Y-96245609D01*
X148301636Y-96245609D02*
X148349255Y-96150371D01*
X148349255Y-96150371D02*
X148349255Y-95864657D01*
X148349255Y-95864657D02*
X148301636Y-95769419D01*
X148301636Y-95769419D02*
X148254017Y-95721800D01*
X148254017Y-95721800D02*
X148158779Y-95674180D01*
X148158779Y-95674180D02*
X147968303Y-95674180D01*
X147968303Y-95674180D02*
X147873065Y-95721800D01*
X148777827Y-95674180D02*
X148777827Y-96340847D01*
X148777827Y-96674180D02*
X148730208Y-96626561D01*
X148730208Y-96626561D02*
X148777827Y-96578942D01*
X148777827Y-96578942D02*
X148825446Y-96626561D01*
X148825446Y-96626561D02*
X148777827Y-96674180D01*
X148777827Y-96674180D02*
X148777827Y-96578942D01*
X150587350Y-95769419D02*
X150539731Y-95721800D01*
X150539731Y-95721800D02*
X150396874Y-95674180D01*
X150396874Y-95674180D02*
X150301636Y-95674180D01*
X150301636Y-95674180D02*
X150158779Y-95721800D01*
X150158779Y-95721800D02*
X150063541Y-95817038D01*
X150063541Y-95817038D02*
X150015922Y-95912276D01*
X150015922Y-95912276D02*
X149968303Y-96102752D01*
X149968303Y-96102752D02*
X149968303Y-96245609D01*
X149968303Y-96245609D02*
X150015922Y-96436085D01*
X150015922Y-96436085D02*
X150063541Y-96531323D01*
X150063541Y-96531323D02*
X150158779Y-96626561D01*
X150158779Y-96626561D02*
X150301636Y-96674180D01*
X150301636Y-96674180D02*
X150396874Y-96674180D01*
X150396874Y-96674180D02*
X150539731Y-96626561D01*
X150539731Y-96626561D02*
X150587350Y-96578942D01*
X151158779Y-95674180D02*
X151063541Y-95721800D01*
X151063541Y-95721800D02*
X151015922Y-95769419D01*
X151015922Y-95769419D02*
X150968303Y-95864657D01*
X150968303Y-95864657D02*
X150968303Y-96150371D01*
X150968303Y-96150371D02*
X151015922Y-96245609D01*
X151015922Y-96245609D02*
X151063541Y-96293228D01*
X151063541Y-96293228D02*
X151158779Y-96340847D01*
X151158779Y-96340847D02*
X151301636Y-96340847D01*
X151301636Y-96340847D02*
X151396874Y-96293228D01*
X151396874Y-96293228D02*
X151444493Y-96245609D01*
X151444493Y-96245609D02*
X151492112Y-96150371D01*
X151492112Y-96150371D02*
X151492112Y-95864657D01*
X151492112Y-95864657D02*
X151444493Y-95769419D01*
X151444493Y-95769419D02*
X151396874Y-95721800D01*
X151396874Y-95721800D02*
X151301636Y-95674180D01*
X151301636Y-95674180D02*
X151158779Y-95674180D01*
X151920684Y-96340847D02*
X151920684Y-95674180D01*
X151920684Y-96245609D02*
X151968303Y-96293228D01*
X151968303Y-96293228D02*
X152063541Y-96340847D01*
X152063541Y-96340847D02*
X152206398Y-96340847D01*
X152206398Y-96340847D02*
X152301636Y-96293228D01*
X152301636Y-96293228D02*
X152349255Y-96197990D01*
X152349255Y-96197990D02*
X152349255Y-95674180D01*
X152825446Y-96340847D02*
X152825446Y-95674180D01*
X152825446Y-96245609D02*
X152873065Y-96293228D01*
X152873065Y-96293228D02*
X152968303Y-96340847D01*
X152968303Y-96340847D02*
X153111160Y-96340847D01*
X153111160Y-96340847D02*
X153206398Y-96293228D01*
X153206398Y-96293228D02*
X153254017Y-96197990D01*
X153254017Y-96197990D02*
X153254017Y-95674180D01*
X154111160Y-95721800D02*
X154015922Y-95674180D01*
X154015922Y-95674180D02*
X153825446Y-95674180D01*
X153825446Y-95674180D02*
X153730208Y-95721800D01*
X153730208Y-95721800D02*
X153682589Y-95817038D01*
X153682589Y-95817038D02*
X153682589Y-96197990D01*
X153682589Y-96197990D02*
X153730208Y-96293228D01*
X153730208Y-96293228D02*
X153825446Y-96340847D01*
X153825446Y-96340847D02*
X154015922Y-96340847D01*
X154015922Y-96340847D02*
X154111160Y-96293228D01*
X154111160Y-96293228D02*
X154158779Y-96197990D01*
X154158779Y-96197990D02*
X154158779Y-96102752D01*
X154158779Y-96102752D02*
X153682589Y-96007514D01*
X155015922Y-95721800D02*
X154920684Y-95674180D01*
X154920684Y-95674180D02*
X154730208Y-95674180D01*
X154730208Y-95674180D02*
X154634970Y-95721800D01*
X154634970Y-95721800D02*
X154587351Y-95769419D01*
X154587351Y-95769419D02*
X154539732Y-95864657D01*
X154539732Y-95864657D02*
X154539732Y-96150371D01*
X154539732Y-96150371D02*
X154587351Y-96245609D01*
X154587351Y-96245609D02*
X154634970Y-96293228D01*
X154634970Y-96293228D02*
X154730208Y-96340847D01*
X154730208Y-96340847D02*
X154920684Y-96340847D01*
X154920684Y-96340847D02*
X155015922Y-96293228D01*
X155301637Y-96340847D02*
X155682589Y-96340847D01*
X155444494Y-96674180D02*
X155444494Y-95817038D01*
X155444494Y-95817038D02*
X155492113Y-95721800D01*
X155492113Y-95721800D02*
X155587351Y-95674180D01*
X155587351Y-95674180D02*
X155682589Y-95674180D01*
X156158780Y-95674180D02*
X156063542Y-95721800D01*
X156063542Y-95721800D02*
X156015923Y-95769419D01*
X156015923Y-95769419D02*
X155968304Y-95864657D01*
X155968304Y-95864657D02*
X155968304Y-96150371D01*
X155968304Y-96150371D02*
X156015923Y-96245609D01*
X156015923Y-96245609D02*
X156063542Y-96293228D01*
X156063542Y-96293228D02*
X156158780Y-96340847D01*
X156158780Y-96340847D02*
X156301637Y-96340847D01*
X156301637Y-96340847D02*
X156396875Y-96293228D01*
X156396875Y-96293228D02*
X156444494Y-96245609D01*
X156444494Y-96245609D02*
X156492113Y-96150371D01*
X156492113Y-96150371D02*
X156492113Y-95864657D01*
X156492113Y-95864657D02*
X156444494Y-95769419D01*
X156444494Y-95769419D02*
X156396875Y-95721800D01*
X156396875Y-95721800D02*
X156301637Y-95674180D01*
X156301637Y-95674180D02*
X156158780Y-95674180D01*
X156920685Y-95674180D02*
X156920685Y-96340847D01*
X156920685Y-96150371D02*
X156968304Y-96245609D01*
X156968304Y-96245609D02*
X157015923Y-96293228D01*
X157015923Y-96293228D02*
X157111161Y-96340847D01*
X157111161Y-96340847D02*
X157206399Y-96340847D01*
D10*
X171865521Y-127361880D02*
X171389331Y-127361880D01*
X171389331Y-127361880D02*
X171341712Y-126885690D01*
X171341712Y-126885690D02*
X171389331Y-126933309D01*
X171389331Y-126933309D02*
X171484569Y-126980928D01*
X171484569Y-126980928D02*
X171722664Y-126980928D01*
X171722664Y-126980928D02*
X171817902Y-126933309D01*
X171817902Y-126933309D02*
X171865521Y-126885690D01*
X171865521Y-126885690D02*
X171913140Y-126790452D01*
X171913140Y-126790452D02*
X171913140Y-126552357D01*
X171913140Y-126552357D02*
X171865521Y-126457119D01*
X171865521Y-126457119D02*
X171817902Y-126409500D01*
X171817902Y-126409500D02*
X171722664Y-126361880D01*
X171722664Y-126361880D02*
X171484569Y-126361880D01*
X171484569Y-126361880D02*
X171389331Y-126409500D01*
X171389331Y-126409500D02*
X171341712Y-126457119D01*
X172198855Y-127361880D02*
X172532188Y-126361880D01*
X172532188Y-126361880D02*
X172865521Y-127361880D01*
X159038521Y-133462880D02*
X158562331Y-133462880D01*
X158562331Y-133462880D02*
X158514712Y-132986690D01*
X158514712Y-132986690D02*
X158562331Y-133034309D01*
X158562331Y-133034309D02*
X158657569Y-133081928D01*
X158657569Y-133081928D02*
X158895664Y-133081928D01*
X158895664Y-133081928D02*
X158990902Y-133034309D01*
X158990902Y-133034309D02*
X159038521Y-132986690D01*
X159038521Y-132986690D02*
X159086140Y-132891452D01*
X159086140Y-132891452D02*
X159086140Y-132653357D01*
X159086140Y-132653357D02*
X159038521Y-132558119D01*
X159038521Y-132558119D02*
X158990902Y-132510500D01*
X158990902Y-132510500D02*
X158895664Y-132462880D01*
X158895664Y-132462880D02*
X158657569Y-132462880D01*
X158657569Y-132462880D02*
X158562331Y-132510500D01*
X158562331Y-132510500D02*
X158514712Y-132558119D01*
X159371855Y-133462880D02*
X159705188Y-132462880D01*
X159705188Y-132462880D02*
X160038521Y-133462880D01*
X171341712Y-81096642D02*
X171389331Y-81144261D01*
X171389331Y-81144261D02*
X171484569Y-81191880D01*
X171484569Y-81191880D02*
X171722664Y-81191880D01*
X171722664Y-81191880D02*
X171817902Y-81144261D01*
X171817902Y-81144261D02*
X171865521Y-81096642D01*
X171865521Y-81096642D02*
X171913140Y-81001404D01*
X171913140Y-81001404D02*
X171913140Y-80906166D01*
X171913140Y-80906166D02*
X171865521Y-80763309D01*
X171865521Y-80763309D02*
X171294093Y-80191880D01*
X171294093Y-80191880D02*
X171913140Y-80191880D01*
X172532188Y-81191880D02*
X172627426Y-81191880D01*
X172627426Y-81191880D02*
X172722664Y-81144261D01*
X172722664Y-81144261D02*
X172770283Y-81096642D01*
X172770283Y-81096642D02*
X172817902Y-81001404D01*
X172817902Y-81001404D02*
X172865521Y-80810928D01*
X172865521Y-80810928D02*
X172865521Y-80572833D01*
X172865521Y-80572833D02*
X172817902Y-80382357D01*
X172817902Y-80382357D02*
X172770283Y-80287119D01*
X172770283Y-80287119D02*
X172722664Y-80239500D01*
X172722664Y-80239500D02*
X172627426Y-80191880D01*
X172627426Y-80191880D02*
X172532188Y-80191880D01*
X172532188Y-80191880D02*
X172436950Y-80239500D01*
X172436950Y-80239500D02*
X172389331Y-80287119D01*
X172389331Y-80287119D02*
X172341712Y-80382357D01*
X172341712Y-80382357D02*
X172294093Y-80572833D01*
X172294093Y-80572833D02*
X172294093Y-80810928D01*
X172294093Y-80810928D02*
X172341712Y-81001404D01*
X172341712Y-81001404D02*
X172389331Y-81096642D01*
X172389331Y-81096642D02*
X172436950Y-81144261D01*
X172436950Y-81144261D02*
X172532188Y-81191880D01*
X171913140Y-91324261D02*
X171817902Y-91371880D01*
X171817902Y-91371880D02*
X171675045Y-91371880D01*
X171675045Y-91371880D02*
X171532188Y-91324261D01*
X171532188Y-91324261D02*
X171436950Y-91229023D01*
X171436950Y-91229023D02*
X171389331Y-91133785D01*
X171389331Y-91133785D02*
X171341712Y-90943309D01*
X171341712Y-90943309D02*
X171341712Y-90800452D01*
X171341712Y-90800452D02*
X171389331Y-90609976D01*
X171389331Y-90609976D02*
X171436950Y-90514738D01*
X171436950Y-90514738D02*
X171532188Y-90419500D01*
X171532188Y-90419500D02*
X171675045Y-90371880D01*
X171675045Y-90371880D02*
X171770283Y-90371880D01*
X171770283Y-90371880D02*
X171913140Y-90419500D01*
X171913140Y-90419500D02*
X171960759Y-90467119D01*
X171960759Y-90467119D02*
X171960759Y-90800452D01*
X171960759Y-90800452D02*
X171770283Y-90800452D01*
X172389331Y-90371880D02*
X172389331Y-91371880D01*
X172389331Y-91371880D02*
X172960759Y-90371880D01*
X172960759Y-90371880D02*
X172960759Y-91371880D01*
X173436950Y-90371880D02*
X173436950Y-91371880D01*
X173436950Y-91371880D02*
X173675045Y-91371880D01*
X173675045Y-91371880D02*
X173817902Y-91324261D01*
X173817902Y-91324261D02*
X173913140Y-91229023D01*
X173913140Y-91229023D02*
X173960759Y-91133785D01*
X173960759Y-91133785D02*
X174008378Y-90943309D01*
X174008378Y-90943309D02*
X174008378Y-90800452D01*
X174008378Y-90800452D02*
X173960759Y-90609976D01*
X173960759Y-90609976D02*
X173913140Y-90514738D01*
X173913140Y-90514738D02*
X173817902Y-90419500D01*
X173817902Y-90419500D02*
X173675045Y-90371880D01*
X173675045Y-90371880D02*
X173436950Y-90371880D01*
X129002950Y-121688880D02*
X129621997Y-121688880D01*
X129621997Y-121688880D02*
X129288664Y-121307928D01*
X129288664Y-121307928D02*
X129431521Y-121307928D01*
X129431521Y-121307928D02*
X129526759Y-121260309D01*
X129526759Y-121260309D02*
X129574378Y-121212690D01*
X129574378Y-121212690D02*
X129621997Y-121117452D01*
X129621997Y-121117452D02*
X129621997Y-120879357D01*
X129621997Y-120879357D02*
X129574378Y-120784119D01*
X129574378Y-120784119D02*
X129526759Y-120736500D01*
X129526759Y-120736500D02*
X129431521Y-120688880D01*
X129431521Y-120688880D02*
X129145807Y-120688880D01*
X129145807Y-120688880D02*
X129050569Y-120736500D01*
X129050569Y-120736500D02*
X129002950Y-120784119D01*
D11*
X148371523Y-119529180D02*
X147800095Y-119529180D01*
X148085809Y-119529180D02*
X148085809Y-120529180D01*
X148085809Y-120529180D02*
X147990571Y-120386323D01*
X147990571Y-120386323D02*
X147895333Y-120291085D01*
X147895333Y-120291085D02*
X147800095Y-120243466D01*
X148704857Y-120529180D02*
X149371523Y-120529180D01*
X149371523Y-120529180D02*
X148942952Y-119529180D01*
X147800095Y-109953942D02*
X147847714Y-110001561D01*
X147847714Y-110001561D02*
X147942952Y-110049180D01*
X147942952Y-110049180D02*
X148181047Y-110049180D01*
X148181047Y-110049180D02*
X148276285Y-110001561D01*
X148276285Y-110001561D02*
X148323904Y-109953942D01*
X148323904Y-109953942D02*
X148371523Y-109858704D01*
X148371523Y-109858704D02*
X148371523Y-109763466D01*
X148371523Y-109763466D02*
X148323904Y-109620609D01*
X148323904Y-109620609D02*
X147752476Y-109049180D01*
X147752476Y-109049180D02*
X148371523Y-109049180D01*
X148752476Y-109953942D02*
X148800095Y-110001561D01*
X148800095Y-110001561D02*
X148895333Y-110049180D01*
X148895333Y-110049180D02*
X149133428Y-110049180D01*
X149133428Y-110049180D02*
X149228666Y-110001561D01*
X149228666Y-110001561D02*
X149276285Y-109953942D01*
X149276285Y-109953942D02*
X149323904Y-109858704D01*
X149323904Y-109858704D02*
X149323904Y-109763466D01*
X149323904Y-109763466D02*
X149276285Y-109620609D01*
X149276285Y-109620609D02*
X148704857Y-109049180D01*
X148704857Y-109049180D02*
X149323904Y-109049180D01*
X160250094Y-121633819D02*
X160250094Y-120633819D01*
X160250094Y-120633819D02*
X160011999Y-120633819D01*
X160011999Y-120633819D02*
X159869142Y-120681438D01*
X159869142Y-120681438D02*
X159773904Y-120776676D01*
X159773904Y-120776676D02*
X159726285Y-120871914D01*
X159726285Y-120871914D02*
X159678666Y-121062390D01*
X159678666Y-121062390D02*
X159678666Y-121205247D01*
X159678666Y-121205247D02*
X159726285Y-121395723D01*
X159726285Y-121395723D02*
X159773904Y-121490961D01*
X159773904Y-121490961D02*
X159869142Y-121586200D01*
X159869142Y-121586200D02*
X160011999Y-121633819D01*
X160011999Y-121633819D02*
X160250094Y-121633819D01*
X158726285Y-121633819D02*
X159297713Y-121633819D01*
X159011999Y-121633819D02*
X159011999Y-120633819D01*
X159011999Y-120633819D02*
X159107237Y-120776676D01*
X159107237Y-120776676D02*
X159202475Y-120871914D01*
X159202475Y-120871914D02*
X159297713Y-120919533D01*
X147800095Y-115033942D02*
X147847714Y-115081561D01*
X147847714Y-115081561D02*
X147942952Y-115129180D01*
X147942952Y-115129180D02*
X148181047Y-115129180D01*
X148181047Y-115129180D02*
X148276285Y-115081561D01*
X148276285Y-115081561D02*
X148323904Y-115033942D01*
X148323904Y-115033942D02*
X148371523Y-114938704D01*
X148371523Y-114938704D02*
X148371523Y-114843466D01*
X148371523Y-114843466D02*
X148323904Y-114700609D01*
X148323904Y-114700609D02*
X147752476Y-114129180D01*
X147752476Y-114129180D02*
X148371523Y-114129180D01*
X148704857Y-115129180D02*
X149371523Y-115129180D01*
X149371523Y-115129180D02*
X148942952Y-114129180D01*
D12*
%TO.C,G\u002A\u002A\u002A*%
X157857000Y-87824000D02*
X157282000Y-87349000D01*
X157282000Y-87349000D02*
X156857000Y-87674000D01*
X156857000Y-87674000D02*
X157857000Y-87824000D01*
D13*
X156532000Y-86235395D02*
X155632000Y-86249000D01*
X156132001Y-84853950D02*
X156532001Y-84853950D01*
X156132000Y-85849000D02*
X156382000Y-85849000D01*
X156132000Y-85799000D02*
X156132000Y-85349000D01*
X156132000Y-85349000D02*
X156432000Y-85349000D01*
X156132000Y-84849000D02*
X156132000Y-84349000D01*
X156132000Y-84349000D02*
X156582000Y-84349000D01*
D12*
X155907000Y-88549000D02*
X155557000Y-89724000D01*
D13*
X155632000Y-86249000D02*
X155582000Y-83799000D01*
X155582000Y-83799000D02*
X156782000Y-83799000D01*
D12*
X155557000Y-89724000D02*
X153757000Y-89674000D01*
D13*
X155307000Y-83799000D02*
X154532000Y-86249000D01*
X154907000Y-83799000D02*
X155307000Y-83799000D01*
X154657000Y-84399000D02*
X154907000Y-83799000D01*
X154582000Y-84799000D02*
X154357000Y-85549000D01*
X154532000Y-86249000D02*
X154207000Y-86249000D01*
X154357000Y-85549000D02*
X154082000Y-84799000D01*
D12*
X154332000Y-87624000D02*
X152657000Y-87524000D01*
D13*
X154207000Y-86249000D02*
X153307000Y-83799000D01*
X154082000Y-84799000D02*
X154582000Y-84799000D01*
X154057000Y-84399000D02*
X154657000Y-84399000D01*
X153807000Y-83799000D02*
X154057000Y-84399000D01*
X153807000Y-83799000D02*
X153307000Y-83799000D01*
D12*
X153757000Y-89674000D02*
X155907000Y-88549000D01*
X153632000Y-88199000D02*
X154332000Y-87624000D01*
D13*
X153132000Y-84274000D02*
X153132000Y-83824000D01*
X153132000Y-83824000D02*
X151882000Y-83824000D01*
D12*
X152632000Y-87524000D02*
X153632000Y-88199000D01*
X152482000Y-87974000D02*
X150857000Y-86849000D01*
X152432000Y-90299000D02*
X151307000Y-89074000D01*
X152407000Y-90699000D02*
X152482000Y-87974000D01*
D13*
X152382000Y-84274000D02*
X153132000Y-84274000D01*
X152357000Y-86274000D02*
X152382000Y-84274000D01*
X151907000Y-86274000D02*
X152357000Y-86274000D01*
X151882000Y-83824000D02*
X151907000Y-86274000D01*
X151707000Y-83824000D02*
X151007000Y-84774000D01*
X151607000Y-83824000D02*
X151707000Y-83824000D01*
D12*
X151307000Y-89074000D02*
X151882000Y-87574000D01*
D13*
X151207000Y-83824000D02*
X151607000Y-83824000D01*
X150965731Y-86279406D02*
X149857000Y-86274000D01*
D12*
X150857000Y-86849000D02*
X149182000Y-87074000D01*
D13*
X150807000Y-85824000D02*
X150357000Y-85824000D01*
X150457000Y-84774000D02*
X151207000Y-83824000D01*
X150357000Y-85824000D02*
X150357000Y-85274000D01*
X150357000Y-85274000D02*
X150857000Y-85274000D01*
X150307000Y-84774000D02*
X150457000Y-84774000D01*
X150307000Y-83824000D02*
X150307000Y-84774000D01*
X149857000Y-86274000D02*
X149857000Y-83824000D01*
X149857000Y-83824000D02*
X150307000Y-83824000D01*
D12*
X149707000Y-86624000D02*
X148732000Y-86274000D01*
D13*
X149407000Y-86274000D02*
X148107000Y-86274000D01*
X149407000Y-85774000D02*
X149407000Y-86274000D01*
X149407000Y-84324000D02*
X148557000Y-84324000D01*
X149407000Y-83824000D02*
X149407000Y-84324000D01*
D12*
X149307000Y-86899000D02*
X149707000Y-86624000D01*
D13*
X149207000Y-85324000D02*
X148557000Y-85324000D01*
X149207000Y-84874000D02*
X149207000Y-85324000D01*
D12*
X149182000Y-87074000D02*
X147357000Y-86174000D01*
X148932000Y-89074000D02*
X152407000Y-90699000D01*
X148932000Y-89074000D02*
X146607000Y-87924000D01*
D13*
X148557000Y-85774000D02*
X149407000Y-85774000D01*
X148557000Y-85324000D02*
X148557000Y-85774000D01*
X148557000Y-84874000D02*
X149207000Y-84874000D01*
X148557000Y-84324000D02*
X148557000Y-84874000D01*
D12*
X148532000Y-86299000D02*
X149307000Y-86899000D01*
X148182000Y-90499000D02*
X148932000Y-89074000D01*
X148182000Y-90499000D02*
X145982000Y-89324000D01*
D13*
X148157000Y-83824000D02*
X149407000Y-83824000D01*
X148107000Y-86274000D02*
X148057000Y-83824000D01*
X148057000Y-83824000D02*
X148157000Y-83824000D01*
X146957000Y-86260395D02*
X146057000Y-86274000D01*
D12*
X146607000Y-87924000D02*
X145132000Y-86199000D01*
X146607000Y-87924000D02*
X140957000Y-85074000D01*
D13*
X146557001Y-84878950D02*
X146957001Y-84878950D01*
X146557000Y-85874000D02*
X146807000Y-85874000D01*
X146557000Y-85824000D02*
X146557000Y-85374000D01*
X146557000Y-85374000D02*
X146857000Y-85374000D01*
X146557000Y-84874000D02*
X146557000Y-84374000D01*
X146557000Y-84374000D02*
X147007000Y-84374000D01*
X146057000Y-86274000D02*
X146007000Y-83824000D01*
X146007000Y-83824000D02*
X147207000Y-83824000D01*
D12*
X145982000Y-89324000D02*
X147557000Y-88424000D01*
X145882000Y-89499000D02*
X146607000Y-87924000D01*
D13*
X145607000Y-85424000D02*
X145607000Y-84724000D01*
D12*
X145307000Y-86099000D02*
X152407000Y-90699000D01*
D13*
X145107000Y-85424000D02*
X145107000Y-84774000D01*
D12*
X144857000Y-89249000D02*
X146607000Y-87924000D01*
X144857000Y-89249000D02*
X145882000Y-89499000D01*
X144782000Y-85174000D02*
X144407000Y-84999000D01*
X144457000Y-85574000D02*
X144782000Y-85174000D01*
D13*
X144407000Y-85424000D02*
X144407000Y-84724000D01*
D12*
X143907000Y-84824000D02*
X143357000Y-84549000D01*
D13*
X143907000Y-84724000D02*
X143907000Y-85424000D01*
D12*
X143857000Y-85549000D02*
X143632000Y-84924000D01*
X143632000Y-84924000D02*
X140957000Y-85074000D01*
X143357000Y-84549000D02*
X143932000Y-85349000D01*
X142282000Y-84599000D02*
X143107000Y-84949000D01*
X140957000Y-85074000D02*
X144857000Y-89249000D01*
X140957000Y-85074000D02*
X143857000Y-85549000D01*
X140957000Y-85074000D02*
X142282000Y-84599000D01*
D13*
X156532000Y-86235394D02*
G75*
G03*
X156981999Y-85149001I0J636394D01*
G01*
X156958256Y-85107936D02*
G75*
G03*
X156781999Y-83799002I-426255J608936D01*
G01*
X156532001Y-84853949D02*
G75*
G03*
X156581999Y-84349002I-1J254949D01*
G01*
X156371366Y-85841536D02*
G75*
G03*
X156432000Y-85349000I60634J242536D01*
G01*
X150965731Y-86279405D02*
G75*
G03*
X150981999Y-84824002I-233731J730405D01*
G01*
X150856999Y-85823998D02*
G75*
G03*
X150856999Y-85274002I-124999J274998D01*
G01*
X146957000Y-86260394D02*
G75*
G03*
X147406999Y-85174001I0J636394D01*
G01*
X147383256Y-85132936D02*
G75*
G03*
X147206999Y-83824002I-426255J608936D01*
G01*
X146957001Y-84878949D02*
G75*
G03*
X147006999Y-84374002I-1J254949D01*
G01*
X146796366Y-85866536D02*
G75*
G03*
X146857000Y-85374000I60634J242536D01*
G01*
X143907000Y-85424000D02*
G75*
G03*
X145607000Y-85424000I850000J0D01*
G01*
X144407000Y-85424000D02*
G75*
G03*
X145107000Y-85424000I350000J0D01*
G01*
X145107000Y-84724000D02*
G75*
G03*
X144407000Y-84724000I-350000J0D01*
G01*
X145607000Y-84724000D02*
G75*
G03*
X143907000Y-84724000I-850000J0D01*
G01*
D14*
X135537277Y-30828774D02*
X135473458Y-30892593D01*
X135409639Y-30828774D01*
X135473458Y-30764955D01*
X135537277Y-30828774D01*
G36*
X135537277Y-30828774D02*
G01*
X135473458Y-30892593D01*
X135409639Y-30828774D01*
X135473458Y-30764955D01*
X135537277Y-30828774D01*
G37*
D13*
%TO.C,D2*%
X161072000Y-115634000D02*
X161072000Y-115790000D01*
X161072000Y-113318000D02*
X161072000Y-113474000D01*
X157839666Y-115632608D02*
G75*
G03*
X161071999Y-115789515I1672334J1078608D01*
G01*
X158470871Y-115633836D02*
G75*
G03*
X160552960Y-115633999I1041129J1079836D01*
G01*
X160552960Y-113474001D02*
G75*
G03*
X158470871Y-113474164I-1040960J-1079999D01*
G01*
X161071999Y-113318485D02*
G75*
G03*
X157839666Y-113475392I-1559999J-1235515D01*
G01*
%TO.C,17*%
X142382000Y-114554000D02*
X144042000Y-114554000D01*
X142382000Y-114554000D02*
G75*
G03*
X142382000Y-114554000I-1920000J0D01*
G01*
%TO.C,22*%
X142382000Y-109474000D02*
X144042000Y-109474000D01*
X142382000Y-109474000D02*
G75*
G03*
X142382000Y-109474000I-1920000J0D01*
G01*
%TO.C,D1*%
X161072000Y-110554000D02*
X161072000Y-110710000D01*
X161072000Y-108238000D02*
X161072000Y-108394000D01*
X157839666Y-110552608D02*
G75*
G03*
X161071999Y-110709515I1672334J1078608D01*
G01*
X158470871Y-110553836D02*
G75*
G03*
X160552960Y-110553999I1041129J1079836D01*
G01*
X160552960Y-108394001D02*
G75*
G03*
X158470871Y-108394164I-1040960J-1079999D01*
G01*
X161071999Y-108238485D02*
G75*
G03*
X157839666Y-108395392I-1559999J-1235515D01*
G01*
%TO.C,27*%
X142382000Y-119634000D02*
X144042000Y-119634000D01*
X142382000Y-119634000D02*
G75*
G03*
X142382000Y-119634000I-1920000J0D01*
G01*
%TO.C,D3*%
X161072000Y-120714000D02*
X161072000Y-120870000D01*
X161072000Y-118398000D02*
X161072000Y-118554000D01*
X157839666Y-120712608D02*
G75*
G03*
X161071999Y-120869515I1672334J1078608D01*
G01*
X158470871Y-120713836D02*
G75*
G03*
X160552960Y-120713999I1041129J1079836D01*
G01*
X160552960Y-118554001D02*
G75*
G03*
X158470871Y-118554164I-1040960J-1079999D01*
G01*
X161071999Y-118398485D02*
G75*
G03*
X157839666Y-118555392I-1559999J-1235515D01*
G01*
%TD*%
M02*
