%TF.GenerationSoftware,KiCad,Pcbnew,7.0.8*%
%TF.CreationDate,2025-03-02T05:57:02+01:00*%
%TF.ProjectId,Raspi-Connector,52617370-692d-4436-9f6e-6e6563746f72,rev?*%
%TF.SameCoordinates,Original*%
%TF.FileFunction,Soldermask,Bot*%
%TF.FilePolarity,Negative*%
%FSLAX46Y46*%
G04 Gerber Fmt 4.6, Leading zero omitted, Abs format (unit mm)*
G04 Created by KiCad (PCBNEW 7.0.8) date 2025-03-02 05:57:02*
%MOMM*%
%LPD*%
G01*
G04 APERTURE LIST*
%ADD10C,0.150000*%
%ADD11R,1.700000X1.700000*%
%ADD12O,1.700000X1.700000*%
%ADD13R,2.000000X2.000000*%
%ADD14R,1.800000X1.800000*%
%ADD15C,1.800000*%
%ADD16C,2.400000*%
%ADD17O,2.400000X2.400000*%
G04 APERTURE END LIST*
D10*
X115062001Y-73914000D02*
G75*
G03*
X115062001Y-73914000I-1J0D01*
G01*
X117602001Y-71374000D02*
G75*
G03*
X117602001Y-71374000I-1J0D01*
G01*
X155837826Y-73125371D02*
X155837826Y-74625371D01*
X156694969Y-73125371D02*
X156052112Y-73982514D01*
X156694969Y-74625371D02*
X155837826Y-73768228D01*
X157337826Y-73125371D02*
X157337826Y-74625371D01*
X157337826Y-73911085D02*
X158194969Y-73911085D01*
X158194969Y-73125371D02*
X158194969Y-74625371D01*
X159409255Y-73911085D02*
X158909255Y-73911085D01*
X158909255Y-73125371D02*
X158909255Y-74625371D01*
X158909255Y-74625371D02*
X159623541Y-74625371D01*
X161623541Y-74625371D02*
X161766398Y-74625371D01*
X161766398Y-74625371D02*
X161909255Y-74553942D01*
X161909255Y-74553942D02*
X161980684Y-74482514D01*
X161980684Y-74482514D02*
X162052112Y-74339657D01*
X162052112Y-74339657D02*
X162123541Y-74053942D01*
X162123541Y-74053942D02*
X162123541Y-73696800D01*
X162123541Y-73696800D02*
X162052112Y-73411085D01*
X162052112Y-73411085D02*
X161980684Y-73268228D01*
X161980684Y-73268228D02*
X161909255Y-73196800D01*
X161909255Y-73196800D02*
X161766398Y-73125371D01*
X161766398Y-73125371D02*
X161623541Y-73125371D01*
X161623541Y-73125371D02*
X161480684Y-73196800D01*
X161480684Y-73196800D02*
X161409255Y-73268228D01*
X161409255Y-73268228D02*
X161337826Y-73411085D01*
X161337826Y-73411085D02*
X161266398Y-73696800D01*
X161266398Y-73696800D02*
X161266398Y-74053942D01*
X161266398Y-74053942D02*
X161337826Y-74339657D01*
X161337826Y-74339657D02*
X161409255Y-74482514D01*
X161409255Y-74482514D02*
X161480684Y-74553942D01*
X161480684Y-74553942D02*
X161623541Y-74625371D01*
X162623540Y-74625371D02*
X163552112Y-74625371D01*
X163552112Y-74625371D02*
X163052112Y-74053942D01*
X163052112Y-74053942D02*
X163266397Y-74053942D01*
X163266397Y-74053942D02*
X163409255Y-73982514D01*
X163409255Y-73982514D02*
X163480683Y-73911085D01*
X163480683Y-73911085D02*
X163552112Y-73768228D01*
X163552112Y-73768228D02*
X163552112Y-73411085D01*
X163552112Y-73411085D02*
X163480683Y-73268228D01*
X163480683Y-73268228D02*
X163409255Y-73196800D01*
X163409255Y-73196800D02*
X163266397Y-73125371D01*
X163266397Y-73125371D02*
X162837826Y-73125371D01*
X162837826Y-73125371D02*
X162694969Y-73196800D01*
X162694969Y-73196800D02*
X162623540Y-73268228D01*
X164194968Y-73268228D02*
X164266397Y-73196800D01*
X164266397Y-73196800D02*
X164194968Y-73125371D01*
X164194968Y-73125371D02*
X164123540Y-73196800D01*
X164123540Y-73196800D02*
X164194968Y-73268228D01*
X164194968Y-73268228D02*
X164194968Y-73125371D01*
X164837826Y-74482514D02*
X164909254Y-74553942D01*
X164909254Y-74553942D02*
X165052112Y-74625371D01*
X165052112Y-74625371D02*
X165409254Y-74625371D01*
X165409254Y-74625371D02*
X165552112Y-74553942D01*
X165552112Y-74553942D02*
X165623540Y-74482514D01*
X165623540Y-74482514D02*
X165694969Y-74339657D01*
X165694969Y-74339657D02*
X165694969Y-74196800D01*
X165694969Y-74196800D02*
X165623540Y-73982514D01*
X165623540Y-73982514D02*
X164766397Y-73125371D01*
X164766397Y-73125371D02*
X165694969Y-73125371D01*
X166623540Y-74625371D02*
X166766397Y-74625371D01*
X166766397Y-74625371D02*
X166909254Y-74553942D01*
X166909254Y-74553942D02*
X166980683Y-74482514D01*
X166980683Y-74482514D02*
X167052111Y-74339657D01*
X167052111Y-74339657D02*
X167123540Y-74053942D01*
X167123540Y-74053942D02*
X167123540Y-73696800D01*
X167123540Y-73696800D02*
X167052111Y-73411085D01*
X167052111Y-73411085D02*
X166980683Y-73268228D01*
X166980683Y-73268228D02*
X166909254Y-73196800D01*
X166909254Y-73196800D02*
X166766397Y-73125371D01*
X166766397Y-73125371D02*
X166623540Y-73125371D01*
X166623540Y-73125371D02*
X166480683Y-73196800D01*
X166480683Y-73196800D02*
X166409254Y-73268228D01*
X166409254Y-73268228D02*
X166337825Y-73411085D01*
X166337825Y-73411085D02*
X166266397Y-73696800D01*
X166266397Y-73696800D02*
X166266397Y-74053942D01*
X166266397Y-74053942D02*
X166337825Y-74339657D01*
X166337825Y-74339657D02*
X166409254Y-74482514D01*
X166409254Y-74482514D02*
X166480683Y-74553942D01*
X166480683Y-74553942D02*
X166623540Y-74625371D01*
X167694968Y-74482514D02*
X167766396Y-74553942D01*
X167766396Y-74553942D02*
X167909254Y-74625371D01*
X167909254Y-74625371D02*
X168266396Y-74625371D01*
X168266396Y-74625371D02*
X168409254Y-74553942D01*
X168409254Y-74553942D02*
X168480682Y-74482514D01*
X168480682Y-74482514D02*
X168552111Y-74339657D01*
X168552111Y-74339657D02*
X168552111Y-74196800D01*
X168552111Y-74196800D02*
X168480682Y-73982514D01*
X168480682Y-73982514D02*
X167623539Y-73125371D01*
X167623539Y-73125371D02*
X168552111Y-73125371D01*
X169909253Y-74625371D02*
X169194967Y-74625371D01*
X169194967Y-74625371D02*
X169123539Y-73911085D01*
X169123539Y-73911085D02*
X169194967Y-73982514D01*
X169194967Y-73982514D02*
X169337825Y-74053942D01*
X169337825Y-74053942D02*
X169694967Y-74053942D01*
X169694967Y-74053942D02*
X169837825Y-73982514D01*
X169837825Y-73982514D02*
X169909253Y-73911085D01*
X169909253Y-73911085D02*
X169980682Y-73768228D01*
X169980682Y-73768228D02*
X169980682Y-73411085D01*
X169980682Y-73411085D02*
X169909253Y-73268228D01*
X169909253Y-73268228D02*
X169837825Y-73196800D01*
X169837825Y-73196800D02*
X169694967Y-73125371D01*
X169694967Y-73125371D02*
X169337825Y-73125371D01*
X169337825Y-73125371D02*
X169194967Y-73196800D01*
X169194967Y-73196800D02*
X169123539Y-73268228D01*
D11*
%TO.C,J8*%
X132842000Y-78279000D03*
D12*
X132842000Y-80819000D03*
X132842000Y-83359000D03*
X132842000Y-85899000D03*
X132842000Y-88439000D03*
X132842000Y-90979000D03*
X132842000Y-93519000D03*
X132842000Y-96059000D03*
X132842000Y-98599000D03*
X132842000Y-101139000D03*
X132842000Y-103679000D03*
X132842000Y-106219000D03*
X132842000Y-108759000D03*
X132842000Y-111299000D03*
X132842000Y-113839000D03*
X132842000Y-116379000D03*
X132842000Y-118919000D03*
X132842000Y-121459000D03*
X132842000Y-123999000D03*
X132842000Y-126539000D03*
%TD*%
D11*
%TO.C,J2*%
X126087000Y-78279000D03*
D12*
X123547000Y-78279000D03*
X126087000Y-80819000D03*
X123547000Y-80819000D03*
X126087000Y-83359000D03*
X123547000Y-83359000D03*
X126087000Y-85899000D03*
X123547000Y-85899000D03*
X126087000Y-88439000D03*
X123547000Y-88439000D03*
X126087000Y-90979000D03*
X123547000Y-90979000D03*
X126087000Y-93519000D03*
X123547000Y-93519000D03*
X126087000Y-96059000D03*
X123547000Y-96059000D03*
X126087000Y-98599000D03*
X123547000Y-98599000D03*
X126087000Y-101139000D03*
X123547000Y-101139000D03*
X126087000Y-103679000D03*
X123547000Y-103679000D03*
X126087000Y-106219000D03*
X123547000Y-106219000D03*
X126087000Y-108759000D03*
X123547000Y-108759000D03*
X126087000Y-111299000D03*
X123547000Y-111299000D03*
X126087000Y-113839000D03*
X123547000Y-113839000D03*
X126087000Y-116379000D03*
X123547000Y-116379000D03*
X126087000Y-118919000D03*
X123547000Y-118919000D03*
X126087000Y-121459000D03*
X123547000Y-121459000D03*
X126087000Y-123999000D03*
X123547000Y-123999000D03*
X123547000Y-126539000D03*
X126087000Y-126539000D03*
%TD*%
D13*
%TO.C,LP*%
X155262000Y-129664000D03*
%TD*%
%TO.C,LP*%
X139982000Y-129684000D03*
%TD*%
%TO.C,LP*%
X163802000Y-129684000D03*
%TD*%
%TO.C,LP*%
X139454500Y-73974000D03*
%TD*%
%TO.C,LP*%
X147964500Y-74004000D03*
%TD*%
%TO.C,LP*%
X150774500Y-74024000D03*
%TD*%
%TO.C,LP*%
X145712000Y-129684000D03*
%TD*%
%TO.C,LP*%
X148522000Y-129704000D03*
%TD*%
%TO.C,LP*%
X142234500Y-74004000D03*
%TD*%
%TO.C,LP*%
X142812000Y-129684000D03*
%TD*%
%TO.C,LP*%
X160992000Y-129664000D03*
%TD*%
%TO.C,LP*%
X137202000Y-129654000D03*
%TD*%
%TO.C,LP*%
X158092000Y-129664000D03*
%TD*%
%TO.C,LP*%
X145064500Y-74004000D03*
%TD*%
D11*
%TO.C,J7*%
X168402000Y-78279000D03*
D12*
X168402000Y-80819000D03*
X168402000Y-83359000D03*
X168402000Y-85899000D03*
X168402000Y-88439000D03*
X168402000Y-90979000D03*
X168402000Y-93519000D03*
X168402000Y-96059000D03*
X168402000Y-98599000D03*
X168402000Y-101139000D03*
X168402000Y-103679000D03*
X168402000Y-106219000D03*
X168402000Y-108759000D03*
X168402000Y-111299000D03*
X168402000Y-113839000D03*
X168402000Y-116379000D03*
X168402000Y-118919000D03*
X168402000Y-121459000D03*
X168402000Y-123999000D03*
X168402000Y-126539000D03*
%TD*%
D13*
%TO.C,LP*%
X152482000Y-129634000D03*
%TD*%
D14*
%TO.C,D2*%
X160782000Y-114554000D03*
D15*
X158242000Y-114554000D03*
%TD*%
D16*
%TO.C,17*%
X140462000Y-114554000D03*
D17*
X145542000Y-114554000D03*
%TD*%
D16*
%TO.C,22*%
X140462000Y-109474000D03*
D17*
X145542000Y-109474000D03*
%TD*%
D14*
%TO.C,D1*%
X160782000Y-109474000D03*
D15*
X158242000Y-109474000D03*
%TD*%
D16*
%TO.C,27*%
X140462000Y-119634000D03*
D17*
X145542000Y-119634000D03*
%TD*%
D14*
%TO.C,D3*%
X160782000Y-119634000D03*
D15*
X158242000Y-119634000D03*
%TD*%
M02*
